<svg width="52" height="52" viewBox="0 0 52 52" fill="none" xmlns="http://www.w3.org/2000/svg">
<path d="M15.166 21.6665L20.1339 26.6344C20.9801 27.4806 22.3519 27.4806 23.1981 26.6344L26.6339 23.1986C27.4801 22.3524 28.8519 22.3524 29.6981 23.1986L36.8327 30.3332M36.8327 30.3332V24.9165M36.8327 30.3332H31.416" stroke="white" stroke-width="2" stroke-linecap="round" stroke-linejoin="round"/>
<circle cx="41.166" cy="10.8335" r="6.5" stroke="white" stroke-width="2"/>
<path d="M47.6673 22.7502V26.0002C47.6673 36.2139 47.6673 41.3208 44.4943 44.4938C41.3213 47.6668 36.2144 47.6668 26.0006 47.6668C15.7869 47.6668 10.68 47.6668 7.50699 44.4938C4.33398 41.3208 4.33398 36.2139 4.33398 26.0002C4.33398 23.5554 4.33398 21.4033 4.3775 19.5002M29.2506 4.3335H26.0006C15.7869 4.3335 10.68 4.3335 7.50699 7.50651C6.55168 8.46182 5.88398 9.59244 5.41732 10.9849" stroke="white" stroke-width="2" stroke-linecap="round"/>
</svg>
