<svg width="51" height="50" viewBox="0 0 51 50" fill="none" xmlns="http://www.w3.org/2000/svg">
<circle cx="25.0381" cy="25" r="25" fill="#176BF8"/>
<path d="M28.6865 10.3516V16.1895C28.6865 18.3986 30.4774 20.1895 32.6865 20.1895H38.5244" stroke="white" stroke-width="2" stroke-linecap="round"/>
<path d="M25.876 39.1624H17.0381C16.4858 39.1624 16.0381 38.7147 16.0381 38.1624V11C16.0381 10.4477 16.4858 10 17.0381 10H28.624C28.8892 10 29.1436 10.1054 29.3311 10.2929L38.2319 19.1937C38.4194 19.3812 38.5248 19.6356 38.5248 19.9008V23.7028" stroke="white" stroke-width="2" stroke-linecap="round"/>
<path d="M22.0117 19.4863H24.8226" stroke="white" stroke-width="2" stroke-linecap="round"/>
<path d="M22.0117 32.8379H24.8226" stroke="white" stroke-width="2" stroke-linecap="round"/>
<path d="M21.6602 26.1621H32.9035" stroke="white" stroke-width="2" stroke-linecap="round"/>
<path d="M36.0381 35.0367C36.0381 35.2664 35.9692 35.4822 35.8315 35.6843C35.6992 35.8863 35.5009 36.0563 35.2364 36.194C34.9775 36.3318 34.6689 36.4145 34.3108 36.442V37H33.7736V36.442C33.2557 36.4007 32.837 36.2652 32.5174 36.0356C32.1979 35.806 32.0381 35.5029 32.0381 35.1263H33.0464C33.0629 35.3054 33.1317 35.4546 33.253 35.5741C33.3742 35.6889 33.5477 35.7623 33.7736 35.7945V34.279C33.4045 34.2009 33.1042 34.1228 32.8728 34.0448C32.6414 33.9621 32.443 33.8335 32.2778 33.659C32.118 33.4845 32.0381 33.2457 32.0381 32.9426C32.0381 32.5614 32.1979 32.2468 32.5174 31.9989C32.837 31.7463 33.2557 31.5993 33.7736 31.558V31H34.3108V31.558C34.7957 31.5947 35.1841 31.7233 35.4761 31.9437C35.7736 32.1596 35.9417 32.4581 35.9802 32.8393H34.972C34.9554 32.6969 34.8893 32.5706 34.7736 32.4604C34.6579 32.3456 34.5037 32.2675 34.3108 32.2262V33.7141C34.68 33.7876 34.9802 33.8657 35.2116 33.9483C35.443 34.0264 35.6386 34.1527 35.7984 34.3272C35.9582 34.4971 36.0381 34.7336 36.0381 35.0367ZM32.9968 32.9013C32.9968 33.0896 33.0629 33.2365 33.1951 33.3421C33.3329 33.4478 33.5257 33.5327 33.7736 33.597V32.2055C33.5367 32.2285 33.3466 32.2997 33.2034 32.4191C33.0656 32.5385 32.9968 32.6992 32.9968 32.9013ZM34.3108 35.7945C34.5532 35.7623 34.7433 35.682 34.8811 35.5534C35.0188 35.4202 35.0877 35.2618 35.0877 35.0781C35.0877 34.8944 35.0188 34.752 34.8811 34.651C34.7488 34.5454 34.5587 34.4604 34.3108 34.3961V35.7945Z" fill="white"/>
<circle cx="34.0381" cy="34" r="5.25" stroke="white" stroke-width="1.5"/>
</svg>
