<svg width="31" height="31" viewBox="0 0 31 31" fill="none" xmlns="http://www.w3.org/2000/svg">
<circle cx="24.541" cy="6.45898" r="3.875" stroke="#A9F3DB" stroke-width="2"/>
<path d="M9.04102 18.0827L12.0027 15.121C12.5071 14.6166 13.3249 14.6166 13.8294 15.121L15.8777 17.1693C16.3821 17.6738 17.1999 17.6738 17.7044 17.1693L21.9577 12.916M21.9577 12.916V16.1452M21.9577 12.916H18.7285" stroke="#A9F3DB" stroke-width="2" stroke-linecap="round" stroke-linejoin="round"/>
<path d="M28.4173 13.5632V15.5007C28.4173 21.5896 28.4173 24.6341 26.5257 26.5257C24.6341 28.4173 21.5896 28.4173 15.5007 28.4173C9.41168 28.4173 6.36719 28.4173 4.47559 26.5257C2.58398 24.6341 2.58398 21.5896 2.58398 15.5007C2.58398 14.0432 2.58398 12.7602 2.60992 11.6257M17.4382 2.58398H15.5007C9.41168 2.58398 6.36719 2.58398 4.47559 4.47559C3.90607 5.0451 3.50802 5.71912 3.22982 6.54927" stroke="#A9F3DB" stroke-width="2" stroke-linecap="round"/>
</svg>
