<svg width="20" height="21" viewBox="0 0 20 21" fill="none" xmlns="http://www.w3.org/2000/svg">
<g clip-path="url(#clip0_172_27875)">
<path d="M10 20.2695C15.5228 20.2695 20 15.7924 20 10.2695C20 4.74668 15.5228 0.269531 10 0.269531C4.47715 0.269531 0 4.74668 0 10.2695C0 15.7924 4.47715 20.2695 10 20.2695Z" fill="#2E3148"/>
<path d="M10.0125 3.72656C9.20313 3.72656 8.54688 6.66219 8.54688 10.2828C8.54688 13.9034 9.20313 16.8391 10.0125 16.8391C10.8212 16.8391 11.4775 13.9034 11.4775 10.2828C11.4775 6.66219 10.8212 3.72656 10.0125 3.72656ZM10.1137 16.4684C10.0212 16.5922 9.92812 16.4997 9.92812 16.4997C9.55562 16.0672 9.36937 15.2653 9.36937 15.2653C8.7175 13.1672 8.8725 8.66281 8.8725 8.66281C9.17875 5.08719 9.73625 4.24219 9.92562 4.05469C9.94502 4.03546 9.9706 4.02372 9.99783 4.02154C10.0251 4.01937 10.0522 4.0269 10.0744 4.04281C10.3494 4.23844 10.5806 5.05344 10.5806 5.05344C11.2619 7.58344 11.2 9.95844 11.2 9.95844C11.2619 12.0259 10.8587 14.3397 10.8587 14.3397C10.5481 16.0984 10.1137 16.4684 10.1137 16.4684Z" fill="white"/>
<path d="M15.6995 7.02129C15.2964 6.31879 12.4245 7.21066 9.28261 9.01254C6.14073 10.8144 3.92448 12.8438 4.32636 13.5463C4.72948 14.2488 7.60198 13.3569 10.7439 11.555C13.8857 9.75316 16.1026 7.72316 15.7001 7.02129H15.6995ZM4.69761 13.4494C4.54386 13.4307 4.57886 13.3032 4.57886 13.3032C4.76761 12.7657 5.37011 12.2044 5.37011 12.2044C6.86573 10.595 10.8507 8.48816 10.8507 8.48816C14.1045 6.97441 15.1151 7.03816 15.3714 7.10816C15.3978 7.11543 15.4208 7.13186 15.4363 7.15453C15.4517 7.1772 15.4586 7.20463 15.4557 7.23191C15.4245 7.56754 14.8307 8.17379 14.8307 8.17379C12.977 10.0244 10.8857 11.1538 10.8857 11.1538C9.12323 12.2363 6.91511 13.0369 6.91511 13.0369C5.23511 13.6419 4.69761 13.4494 4.69761 13.4494Z" fill="white"/>
<path d="M15.6855 13.5688C16.0917 12.8688 13.8811 10.8294 10.7492 9.01377C7.61796 7.19877 4.74671 6.29627 4.34108 6.99752C3.93483 7.6994 6.14608 9.7369 9.27858 11.5525C12.4117 13.3675 15.2798 14.27 15.6855 13.5688ZM4.61046 7.26815C4.54983 7.12565 4.67671 7.09127 4.67671 7.09127C5.23733 6.98502 6.02483 7.2269 6.02483 7.2269C8.16671 7.7144 11.9861 10.1069 11.9861 10.1069C14.9267 12.1644 15.378 13.0713 15.4455 13.3281C15.4523 13.3545 15.4496 13.3825 15.4378 13.4071C15.426 13.4317 15.4059 13.4513 15.3811 13.4625C15.0748 13.6031 14.253 13.3938 14.253 13.3938C11.7217 12.715 9.69733 11.4719 9.69733 11.4719C7.87858 10.4906 6.07983 8.98127 6.07983 8.98127C4.71296 7.83002 4.61108 7.26877 4.61108 7.26877L4.60983 7.26815H4.61046Z" fill="white"/>
<path d="M9.99781 11.0386C10.4238 11.0386 10.7691 10.6933 10.7691 10.2673C10.7691 9.84139 10.4238 9.49609 9.99781 9.49609C9.57186 9.49609 9.22656 9.84139 9.22656 10.2673C9.22656 10.6933 9.57186 11.0386 9.99781 11.0386Z" fill="white"/>
<path d="M13.1602 7.92969C13.5053 7.92969 13.7852 7.64987 13.7852 7.30469C13.7852 6.95951 13.5053 6.67969 13.1602 6.67969C12.815 6.67969 12.5352 6.95951 12.5352 7.30469C12.5352 7.64987 12.815 7.92969 13.1602 7.92969Z" fill="white"/>
<path d="M5.81641 9.50391C6.16158 9.50391 6.44141 9.22408 6.44141 8.87891C6.44141 8.53373 6.16158 8.25391 5.81641 8.25391C5.47123 8.25391 5.19141 8.53373 5.19141 8.87891C5.19141 9.22408 5.47123 9.50391 5.81641 9.50391Z" fill="white"/>
<path d="M9.08789 15.1797C9.43307 15.1797 9.71289 14.8999 9.71289 14.5547C9.71289 14.2095 9.43307 13.9297 9.08789 13.9297C8.74271 13.9297 8.46289 14.2095 8.46289 14.5547C8.46289 14.8999 8.74271 15.1797 9.08789 15.1797Z" fill="white"/>
</g>
<defs>
<clipPath id="clip0_172_27875">
<rect width="20" height="20" fill="white" transform="translate(0 0.269531)"/>
</clipPath>
</defs>
</svg>
