<svg width="20" height="21" viewBox="0 0 20 21" fill="none" xmlns="http://www.w3.org/2000/svg">
<g clip-path="url(#clip0_172_27870)">
<path d="M16.1568 3.75586H3.81641V15.1591H16.1568V3.75586Z" fill="white"/>
<path fill-rule="evenodd" clip-rule="evenodd" d="M19.9793 10.4299C19.9793 16.0338 15.5081 20.5766 9.99256 20.5766C4.47706 20.5766 0.00585938 16.0338 0.00585938 10.4299C0.00585938 4.82603 4.47706 0.283203 9.99256 0.283203C15.5081 0.283203 19.9793 4.82603 19.9793 10.4299ZM7.16261 14.4678H5.22448C4.81722 14.4678 4.61604 14.4678 4.49339 14.3881C4.3609 14.3008 4.27994 14.1562 4.27013 13.9967C4.26276 13.8497 4.36336 13.6701 4.56453 13.3112L9.35003 4.74093C9.55366 4.377 9.6567 4.19503 9.78672 4.12774C9.92656 4.05545 10.0934 4.05545 10.2332 4.12774C10.3633 4.19503 10.4663 4.377 10.6699 4.74093L11.6537 6.48578L11.6587 6.49469C11.8787 6.88511 11.9902 7.0831 12.0389 7.2909C12.0929 7.51773 12.0929 7.75703 12.0389 7.98386C11.9898 8.19324 11.8794 8.39266 11.6562 8.78899L9.14247 13.3037L9.13596 13.3153C8.91458 13.7089 8.80239 13.9084 8.6469 14.0589C8.47761 14.2235 8.27398 14.3431 8.05072 14.4105C7.8471 14.4678 7.61894 14.4678 7.16261 14.4678ZM12.0571 14.4678H14.8342C15.2439 14.4678 15.45 14.4678 15.5727 14.3856C15.7052 14.2984 15.7886 14.1512 15.796 13.9918C15.8031 13.8495 15.7047 13.677 15.5118 13.3389C15.5052 13.3274 15.4985 13.3157 15.4918 13.3038L14.1007 10.8859L14.0848 10.8587C13.8894 10.5228 13.7907 10.3532 13.664 10.2877C13.5242 10.2154 13.3597 10.2154 13.2199 10.2877C13.0924 10.355 12.9893 10.5319 12.7857 10.8884L11.3996 13.3063L11.3948 13.3146C11.1919 13.6705 11.0905 13.8483 11.0978 13.9942C11.1076 14.1538 11.1886 14.3008 11.321 14.3881C11.4413 14.4678 11.6473 14.4678 12.0571 14.4678Z" fill="#E84142"/>
</g>
<defs>
<clipPath id="clip0_172_27870">
<rect width="19.9867" height="20.3204" fill="white" transform="translate(0 0.269531)"/>
</clipPath>
</defs>
</svg>
