<svg width="20" height="17" viewBox="0 0 20 17" fill="none" xmlns="http://www.w3.org/2000/svg">
<path d="M1.14221 1.60202C1.42049 1.38735 1.74271 1.22868 2.10887 1.12602C2.48236 1.02335 2.87049 0.972016 3.27326 0.972016C3.65407 0.972016 3.95798 1.03735 4.185 1.16802C4.41935 1.29868 4.5951 1.47135 4.71228 1.68602C4.83677 1.89135 4.91733 2.12002 4.95394 2.37202C4.99788 2.62402 5.01985 2.87602 5.01985 3.12802C5.01985 3.68802 5.00887 4.23402 4.9869 4.76602C4.96493 5.29802 4.95394 5.80202 4.95394 6.27802C4.95394 6.62335 4.96493 6.95002 4.9869 7.25802C5.00887 7.56602 5.04914 7.85068 5.10773 8.11202H4.45962L4.22894 7.13202H4.17402C4.10811 7.26268 4.02389 7.39335 3.92137 7.52402C3.82617 7.64535 3.70899 7.75735 3.56985 7.86002C3.43071 7.95335 3.2696 8.03268 3.08652 8.09802C2.90344 8.16335 2.69473 8.19602 2.46039 8.19602C2.22604 8.19602 2.00635 8.14935 1.8013 8.05602C1.60357 7.96268 1.43147 7.83202 1.28501 7.66402C1.13854 7.48668 1.02137 7.27668 0.933494 7.03402C0.852939 6.79135 0.812661 6.51602 0.812661 6.20802C0.812661 5.79735 0.87857 5.45668 1.01039 5.18602C1.14221 4.90602 1.32529 4.68668 1.55963 4.52802C1.8013 4.36002 2.0869 4.24335 2.41645 4.17802C2.75331 4.10335 3.12314 4.06602 3.52591 4.06602C3.62844 4.06602 3.7273 4.06602 3.8225 4.06602C3.92503 4.06602 4.02755 4.07535 4.13008 4.09402C4.15205 3.81402 4.16303 3.56202 4.16303 3.33802C4.16303 2.82468 4.08248 2.46535 3.92137 2.26002C3.76026 2.05468 3.46733 1.95202 3.04258 1.95202C2.91809 1.95202 2.78261 1.96602 2.63614 1.99402C2.497 2.01268 2.35054 2.04535 2.19675 2.09202C2.05029 2.12935 1.90748 2.18068 1.76834 2.24602C1.63652 2.30202 1.51935 2.36735 1.41683 2.44202L1.14221 1.60202ZM2.70205 7.21602C2.9071 7.21602 3.09018 7.18335 3.25129 7.11802C3.4124 7.04335 3.55155 6.95468 3.66872 6.85202C3.78589 6.74002 3.88109 6.61868 3.95432 6.48802C4.03488 6.35735 4.09346 6.23135 4.13008 6.11002V4.94802C4.02755 4.93868 3.92137 4.93402 3.81152 4.93402C3.70899 4.92468 3.60647 4.92002 3.50394 4.92002C3.27692 4.92002 3.05357 4.93868 2.83387 4.97602C2.6215 5.00402 2.43109 5.06468 2.26266 5.15802C2.10155 5.24202 1.96973 5.36335 1.8672 5.52202C1.772 5.67135 1.7244 5.86268 1.7244 6.09602C1.7244 6.42268 1.81594 6.69335 1.99902 6.90802C2.1821 7.11335 2.41645 7.21602 2.70205 7.21602Z" fill="white"/>
<path d="M10.1288 1.08402L11.3921 5.17202L11.6667 6.51602H11.6887L11.8974 5.14402L12.875 1.08402H13.7099L11.8644 8.23802H11.436L9.99701 3.61802L9.7883 2.47002H9.75534L9.53565 3.63202L8.15156 8.23802H7.72315L5.81179 1.08402H6.76747L7.85497 5.15802L8.04171 6.51602H8.05269L8.31633 5.13002L9.49171 1.08402H10.1288Z" fill="white"/>
<path d="M16.9543 6.18002C16.9543 5.90002 16.8884 5.68068 16.7565 5.52202C16.6247 5.36335 16.4599 5.23268 16.2622 5.13002C16.0718 5.01802 15.8594 4.91535 15.6251 4.82202C15.3981 4.71935 15.1857 4.59335 14.988 4.44402C14.7976 4.28535 14.6365 4.08468 14.5047 3.84202C14.3728 3.59935 14.3069 3.27268 14.3069 2.86202C14.3069 2.19002 14.457 1.70002 14.7573 1.39202C15.0576 1.07468 15.475 0.916016 16.0096 0.916016C16.405 0.916016 16.7346 0.962682 16.9982 1.05602C17.2692 1.14002 17.5035 1.24268 17.7012 1.36402L17.4925 2.28802C17.3241 2.18535 17.119 2.09668 16.8774 2.02202C16.643 1.93802 16.3904 1.89602 16.1194 1.89602C15.7972 1.89602 15.5592 1.96602 15.4054 2.10602C15.2589 2.24602 15.1857 2.48868 15.1857 2.83402C15.1857 3.07668 15.2516 3.26802 15.3834 3.40802C15.5153 3.53868 15.6764 3.66002 15.8668 3.77202C16.0645 3.87468 16.2769 3.97735 16.5039 4.08002C16.7382 4.18268 16.9506 4.31802 17.141 4.48602C17.3387 4.65402 17.5035 4.86868 17.6353 5.13002C17.7671 5.38202 17.8331 5.71802 17.8331 6.13802C17.8331 6.43668 17.7928 6.71668 17.7122 6.97802C17.639 7.23935 17.5218 7.46335 17.3607 7.65002C17.1996 7.83668 16.9982 7.98135 16.7565 8.08402C16.5222 8.19602 16.2439 8.25202 15.9217 8.25202C15.5043 8.25202 15.1491 8.20068 14.8562 8.09802C14.5632 7.99535 14.3179 7.87402 14.1202 7.73402L14.3838 6.78202C14.5523 6.90335 14.7719 7.01535 15.0429 7.11802C15.3139 7.22068 15.5885 7.27202 15.8668 7.27202C16.1817 7.27202 16.4416 7.19268 16.6467 7.03402C16.8517 6.87535 16.9543 6.59068 16.9543 6.18002Z" fill="white"/>
<path d="M16.9507 12.8474C11.2428 15.1872 5.22753 14.7074 0.258002 11.4979C0.0794023 11.3825 -0.100246 11.7077 0.0657557 11.8504C2.17348 13.662 5.20202 15.7474 8.23056 16.0425C11.6271 16.3735 15.0235 14.6576 17.1212 13.2998C17.3751 13.1354 17.2219 12.7363 16.9507 12.8474Z" fill="#FF9900"/>
<path d="M15.4721 11.0794C15.1158 11.4191 15.3297 11.682 15.7572 11.5429C16.5721 11.4044 17.0195 11.3588 17.7889 11.3575C18.68 11.4502 18.9825 11.6364 18.7868 12.7943C18.5731 13.8975 18.4238 14.4849 18.1096 15.4824C17.8959 15.9923 18.0028 16.3631 18.5016 15.8069C19.4426 14.5834 19.9954 12.603 20 11.2706C20.0017 10.7832 19.75 10.362 19.3801 10.2378C18.2283 9.85116 16.3775 10.2161 15.4721 11.0794Z" fill="#FF9900"/>
</svg>
