<svg width="52" height="53" viewBox="0 0 52 53" fill="none" xmlns="http://www.w3.org/2000/svg">
<path d="M47.6334 22.2273C47.5532 19.4086 47.283 17.6116 46.373 16.0781C45.0786 13.897 42.7476 12.6833 38.0857 10.2558L33.7524 7.99937C29.9485 6.01867 28.0466 5.02832 26.0006 5.02832C23.9547 5.02832 22.0528 6.01867 18.2489 7.99937L13.9156 10.2558C9.25368 12.6833 6.9227 13.897 5.62834 16.0781C4.33398 18.2592 4.33398 20.9732 4.33398 26.4013V26.6528C4.33398 32.0809 4.33398 34.7949 5.62834 36.976C6.9227 39.157 9.25368 40.3708 13.9156 42.7983L18.2489 45.0547C22.0528 47.0354 23.9547 48.0257 26.0006 48.0257C28.0466 48.0257 29.9485 47.0354 33.7524 45.0547L38.0857 42.7983C42.7476 40.3708 45.0786 39.157 46.373 36.976C47.283 35.4424 47.5532 33.6454 47.6334 30.8268" stroke="white" stroke-width="2" stroke-linecap="round"/>
<path d="M45.5 16.853L26 26.5274M26 26.5274L6.5 16.853M26 26.5274V46.9512" stroke="white" stroke-width="2" stroke-linecap="round"/>
</svg>
