<svg width="20" height="21" viewBox="0 0 20 21" fill="none" xmlns="http://www.w3.org/2000/svg">
<g clip-path="url(#clip0_172_27873)">
<path d="M10 20.2695C15.5228 20.2695 20 15.7924 20 10.2695C20 4.74668 15.5228 0.269531 10 0.269531C4.47715 0.269531 0 4.74668 0 10.2695C0 15.7924 4.47715 20.2695 10 20.2695Z" fill="#F3BA2F"/>
<path d="M7.5725 9.27203L10 6.84453L12.4288 9.27328L13.8412 7.86078L10 4.01953L6.16 7.85953L7.5725 9.27203ZM3.75 10.2695L5.1625 8.85703L6.575 10.2695L5.1625 11.682L3.75 10.2695ZM7.5725 11.267L10 13.6945L12.4288 11.2658L13.8412 12.6777L10 16.5195L6.16 12.6795L6.15812 12.6777L7.5725 11.267ZM13.425 10.2695L14.8375 8.85703L16.25 10.2695L14.8375 11.682L13.425 10.2695ZM11.4325 10.2683H11.4338V10.2695L10 11.7033L8.56812 10.272L8.56563 10.2695L8.56812 10.2677L8.81875 10.0164L8.94063 9.89453L10 8.83578L11.4331 10.2689L11.4325 10.2683Z" fill="white"/>
</g>
<defs>
<clipPath id="clip0_172_27873">
<rect width="20" height="20" fill="white" transform="translate(0 0.269531)"/>
</clipPath>
</defs>
</svg>
