<svg width="52" height="52" viewBox="0 0 52 52" fill="none" xmlns="http://www.w3.org/2000/svg">
<path d="M4.33269 26.0002C4.33269 37.9663 14.0332 47.6668 25.9994 47.6668C29.9458 47.6668 33.6458 46.6117 36.8327 44.7682M25.9994 4.3335C37.9655 4.3335 47.666 14.034 47.666 26.0002C47.666 29.9466 46.6109 33.6466 44.7674 36.8335" stroke="white" stroke-width="2" stroke-linecap="round"/>
<path d="M26 19.5V28.1667H34.6667" stroke="white" stroke-width="2" stroke-linecap="round" stroke-linejoin="round"/>
<path d="M36.834 44.7682C33.6471 46.6117 29.9471 47.6668 26.0006 47.6668C14.0345 47.6668 4.33398 37.9663 4.33398 26.0002C4.33398 14.034 14.0345 4.3335 26.0006 4.3335C37.9668 4.3335 47.6673 14.034 47.6673 26.0002C47.6673 29.9466 46.6122 33.6466 44.7687 36.8335" stroke="white" stroke-width="2" stroke-linecap="round" stroke-dasharray="0.5 3.5"/>
</svg>
