<svg width="50" height="50" viewBox="0 0 50 50" fill="none" xmlns="http://www.w3.org/2000/svg">
<circle cx="25" cy="25" r="25" fill="#176BF8"/>
<path d="M8 33.3213V23.5247C8 22.2096 9.06606 21.1436 10.3811 21.1436C11.6962 21.1436 12.7622 22.2096 12.7622 23.5247V33.3213C12.7622 34.6363 11.6962 35.7024 10.3811 35.7024C9.06606 35.7024 8 34.6364 8 33.3213Z" stroke="white" stroke-width="2"/>
<path d="M12.7627 23.3662H17.7068C19.2495 23.3662 20.7326 23.9589 21.8416 25.0312C23.7321 26.8591 26.6362 29.6991 27.7297 30.9404C29.4079 32.8453 26.868 34.9317 25.2806 33.571C23.6932 32.2104 19.5659 29.3077 19.5659 29.3077" stroke="white" stroke-width="2"/>
<path d="M12.7627 34.4427H14.074C15.7794 34.4427 17.405 35.1993 18.865 36.0807C19.0257 36.1778 19.1955 36.2755 19.3744 36.3728C21.0709 37.2959 22.2961 38.2076 24.2274 38.1971C26.1066 38.1868 27.668 38.1971 29.8161 37.2446C31.9641 36.2922 39.1944 33.5456 41.19 32.0943C43.1856 30.6429 41.19 27.2414 38.5141 28.602C35.8382 29.9626 27.3669 33.7977 27.3669 33.7977" stroke="white" stroke-width="2"/>
<circle cx="37.4664" cy="17.6666" r="2.4" stroke="white" stroke-width="2"/>
<circle cx="30.6666" cy="24.4664" r="2.4" stroke="white" stroke-width="2"/>
<circle cx="28.4" cy="15.4" r="2.4" stroke="white" stroke-width="2"/>
</svg>
