<svg width="52" height="52" viewBox="0 0 52 52" fill="none" xmlns="http://www.w3.org/2000/svg">
<path d="M3.90039 32.9175V20.1819C3.90039 18.4723 5.28627 17.0864 6.99585 17.0864C8.70542 17.0864 10.0913 18.4723 10.0913 20.1819V32.9175C10.0913 34.6271 8.70542 36.0129 6.99585 36.0129C5.28627 36.0129 3.90039 34.6271 3.90039 32.9175Z" stroke="white" stroke-width="2"/>
<path d="M10.0918 19.9761H17.2402C18.7828 19.9761 20.2639 20.5673 21.3742 21.6382C23.7831 23.9617 28.0226 28.09 29.549 29.8226C31.7305 32.2989 28.4287 35.0112 26.3651 33.2423C24.3014 31.4735 18.936 27.7 18.936 27.7" stroke="white" stroke-width="2"/>
<path d="M10.0918 34.3758H12.6004C14.3059 34.3758 15.9319 35.1217 17.3471 36.0734C17.7387 36.3366 18.1854 36.612 18.687 36.885C20.8924 38.085 22.4852 39.2702 24.9959 39.2565C27.4389 39.2432 29.4687 39.2565 32.2612 38.0183C35.0537 36.7801 44.4531 33.2096 47.0473 31.3229C49.6416 29.4361 47.0473 25.0141 43.5686 26.7829C40.0899 28.5517 29.0773 33.5373 29.0773 33.5373" stroke="white" stroke-width="2"/>
<path d="M45.6271 12.567C45.6271 14.4558 44.0959 15.987 42.2071 15.987C40.3183 15.987 38.7871 14.4558 38.7871 12.567C38.7871 10.6782 40.3183 9.14697 42.2071 9.14697C44.0959 9.14697 45.6271 10.6782 45.6271 12.567Z" stroke="white" stroke-width="2"/>
<circle cx="33.3673" cy="21.4068" r="3.41999" stroke="white" stroke-width="2"/>
<circle cx="30.42" cy="9.62019" r="3.41999" stroke="white" stroke-width="2"/>
</svg>
