<svg width="20" height="21" viewBox="0 0 20 21" fill="none" xmlns="http://www.w3.org/2000/svg">
<g clip-path="url(#clip0_172_27868)">
<path d="M20 10.4297C20 12.4392 19.4135 14.4036 18.3147 16.0745C17.2159 17.7453 15.6541 19.0476 13.8268 19.8166C11.9996 20.5856 9.98891 20.7868 8.0491 20.3947C6.10929 20.0027 4.32746 19.035 2.92894 17.6141C1.53041 16.1932 0.578004 14.3828 0.192152 12.4119C-0.193701 10.441 0.0043328 8.39814 0.761209 6.5416C1.51809 4.68506 2.79981 3.09825 4.4443 1.98184C6.08879 0.865418 8.02219 0.269531 10 0.269531C12.6522 0.269531 15.1957 1.33998 17.0711 3.24539C18.9464 5.1508 20 7.73509 20 10.4297Z" fill="#F7931A"/>
<path fill-rule="evenodd" clip-rule="evenodd" d="M7.10662 4.90975L9.4048 5.53506L9.91844 3.58984L11.0675 3.90666L10.5739 5.77152L11.5112 6.02737L12.0057 4.14219L13.1748 4.45993L12.6712 6.35527C12.6712 6.35527 14.5803 6.78477 15.0293 8.36237C15.4784 9.93998 14.0421 10.7685 13.5984 10.7999C13.5984 10.7999 15.2712 11.7319 14.6966 13.5653C14.1221 15.3988 12.3584 15.7267 10.503 15.3064L9.99935 17.272L8.83026 16.9542L9.34389 15.0192L8.41662 14.7624L7.90298 16.7113L6.74298 16.3945L7.25753 14.4548L4.89844 13.8082L5.49298 12.4671C5.49298 12.4671 6.15844 12.6518 6.41026 12.7128C6.66207 12.7738 6.82389 12.5077 6.8948 12.2417C6.96571 11.9757 8.03389 7.56711 8.1348 7.20411C8.23571 6.84111 8.1948 6.55755 7.77116 6.44579C7.34753 6.33403 6.77116 6.15945 6.77116 6.15945L7.10662 4.90975ZM9.4248 10.7482L8.78844 13.3187C8.78844 13.3187 11.9439 14.4761 12.3475 12.8476C12.7512 11.2192 9.4248 10.7482 9.4248 10.7482ZM9.71753 9.52895L10.3421 7.17363C10.3421 7.17363 13.0439 7.66501 12.7112 8.97568C12.3784 10.2863 10.7857 9.78388 9.71753 9.52895Z" fill="white"/>
</g>
<defs>
<clipPath id="clip0_172_27868">
<rect width="20" height="20.3204" fill="white" transform="translate(0 0.269531)"/>
</clipPath>
</defs>
</svg>
