<svg width="33" height="46" viewBox="0 0 33 46" fill="none" xmlns="http://www.w3.org/2000/svg">
<path d="M16.1667 22.6667L9.75832 29.0127C3.42626 35.2832 0.260227 38.4184 1.14658 41.1234C1.22277 41.356 1.31739 41.5822 1.42954 41.7999C2.73433 44.3333 7.21178 44.3333 16.1667 44.3333C25.1216 44.3333 29.599 44.3333 30.9038 41.7999C31.0159 41.5822 31.1106 41.356 31.1868 41.1234C31.6855 39.6014 30.9012 37.9431 28.9918 35.6667M16.1667 22.6667L22.575 29.0127M16.1667 22.6667L22.575 16.3206C28.9071 10.0502 32.0731 6.91493 31.1868 4.20989C31.1106 3.97737 31.0159 3.75117 30.9038 3.5334C29.599 1 25.1216 1 16.1667 1C7.21178 1 2.73433 1 1.42954 3.5334C1.31739 3.75117 1.22277 3.97737 1.14658 4.20989C0.647844 5.73197 1.43215 7.39026 3.34158 9.66667M16.1667 22.6667L9.75832 16.3206" stroke="white" stroke-width="2" stroke-linecap="round"/>
</svg>
