<svg width="301" height="184" viewBox="0 0 301 184" fill="none" xmlns="http://www.w3.org/2000/svg">
<path d="M183.603 145.612C188.195 157.184 196.231 167.069 206.625 173.931C217.019 180.792 229.27 184.3 241.724 183.98C254.177 183.66 266.231 179.528 276.259 172.141C286.286 164.755 293.803 154.47 297.794 142.677C301.785 130.884 302.057 118.151 298.573 106.199C295.09 94.2467 288.019 83.651 278.316 75.8435C268.613 68.0361 256.746 63.3933 244.318 62.5425C231.89 61.6918 219.5 64.674 208.822 71.0862L224.136 96.5532C229.596 93.2745 235.931 91.7496 242.286 92.1846C248.641 92.6197 254.709 94.9936 259.67 98.9857C264.631 102.978 268.247 108.396 270.028 114.507C271.809 120.619 271.67 127.129 269.629 133.159C267.589 139.189 263.745 144.448 258.618 148.225C253.491 152.002 247.327 154.115 240.959 154.279C234.592 154.442 228.327 152.648 223.013 149.14C217.698 145.631 213.589 140.577 211.241 134.66L183.603 145.612Z" fill="url(#paint0_linear_1329_142505)"/>
<path fill-rule="evenodd" clip-rule="evenodd" d="M152.901 0C203.745 0 244.962 41.1898 244.962 92C244.962 142.81 203.745 184 152.901 184H106.064C100.541 184 96.0635 179.538 96.0635 174.015V152H152.941C186.078 152 212.941 125.137 212.941 92C212.941 58.8629 186.058 32 152.921 32C119.762 32 92.8614 58.8808 92.8614 92.0399V92.1652C92.4797 92.0576 92.0769 92 91.6606 92C74.6389 92 60.3352 77.8185 65.9344 61.7441C78.4556 25.7971 112.664 0 152.901 0ZM92.8614 92.1652V150C92.8614 151.105 93.7568 152 94.8614 152H96.0635V96.3964C96.0635 94.381 94.7094 92.6864 92.8614 92.1652Z" fill="url(#paint1_linear_1329_142505)"/>
<path fill-rule="evenodd" clip-rule="evenodd" d="M60.8202 62.4004C27.2413 62.4004 0 89.6215 0 123.2C0 156.779 27.2211 184 60.8 184H111.681C117.204 184 121.681 179.523 121.681 174V123.241C121.681 89.6396 94.4215 62.4004 60.8202 62.4004ZM60.8303 92.8004C44.0409 92.8004 30.4202 106.411 30.4202 123.2C30.4202 139.99 44.0308 153.6 60.8202 153.6H89.5718C90.5045 153.6 91.2606 152.844 91.2606 151.911V123.221C91.2606 106.42 77.6309 92.8004 60.8303 92.8004Z" fill="url(#paint2_linear_1329_142505)"/>
<defs>
<linearGradient id="paint0_linear_1329_142505" x1="276.984" y1="119.2" x2="172.115" y2="116.797" gradientUnits="userSpaceOnUse">
<stop stop-color="#3D4DCA"/>
<stop offset="1" stop-color="#26258E"/>
</linearGradient>
<linearGradient id="paint1_linear_1329_142505" x1="244.963" y1="80" x2="78.4568" y2="92.8164" gradientUnits="userSpaceOnUse">
<stop stop-color="#3C4BC8"/>
<stop offset="1" stop-color="#282A97"/>
</linearGradient>
<linearGradient id="paint2_linear_1329_142505" x1="99.4609" y1="119.486" x2="-1.48549e-06" y2="119.486" gradientUnits="userSpaceOnUse">
<stop stop-color="#3D4DCA"/>
<stop offset="1" stop-color="#25248E"/>
</linearGradient>
</defs>
</svg>
