<svg width="625" height="184" viewBox="0 0 625 184" fill="none" xmlns="http://www.w3.org/2000/svg">
<path d="M53.4922 141.724C42.823 141.724 33.4692 139.387 25.4307 134.714C17.3923 130.041 11.1077 123.543 6.57691 115.219C2.1923 106.749 0 96.9651 0 85.8667C0 74.6222 2.1923 64.7651 6.57691 56.2952C11.1077 47.6794 17.3923 41.0349 25.4307 36.3619C33.4692 31.5429 42.823 29.1333 53.4922 29.1333C64.746 29.1333 74.6114 31.7619 83.0883 37.0191C91.5652 42.1302 97.7037 49.2857 101.504 58.4857L86.3768 63.7429C84.1845 57.9016 80.1652 53.3016 74.3191 49.9429C68.6191 46.4381 61.9691 44.6857 54.3691 44.6857C46.9153 44.6857 40.4115 46.3651 34.8576 49.7238C29.4499 53.0825 25.2115 57.8286 22.1423 63.9619C19.2192 70.0952 17.7577 77.3238 17.7577 85.6476C17.7577 97.9143 21.0461 107.771 27.623 115.219C34.1999 122.521 42.9692 126.171 53.9307 126.171C61.3845 126.171 68.0345 124.492 73.8806 121.133C79.7268 117.775 84.0383 113.248 86.8152 107.552L101.723 112.81C97.7767 121.863 91.5652 128.946 83.0883 134.057C74.6114 139.168 64.746 141.724 53.4922 141.724Z" fill="#818285"/>
<path d="M320.188 30.6667H335.315V120.038C335.315 133.473 332.318 144.937 326.326 154.429C320.334 164.067 311.638 171.368 300.238 176.333C288.838 181.444 274.953 184 258.584 184L255.953 168.886C276.561 168.594 292.199 164.286 302.868 155.962C313.538 147.784 318.872 135.81 318.872 120.038V117.629L320.626 118.067C317.265 124.492 312.222 130.041 305.499 134.714C298.776 139.241 290.08 141.578 279.411 141.724C269.326 141.724 260.484 139.46 252.884 134.933C245.43 130.26 239.584 123.689 235.345 115.219C231.253 106.749 229.207 96.8191 229.207 85.4286C229.207 74.0381 231.253 64.181 235.345 55.8571C239.584 47.3873 245.43 40.8159 252.884 36.1429C260.484 31.4698 269.326 29.1333 279.411 29.1333C285.988 29.1333 291.834 30.1556 296.949 32.2C302.065 34.0984 306.449 36.727 310.103 40.0857C313.757 43.2984 316.753 46.9492 319.091 51.0381L320.188 30.6667ZM246.965 85.4286C246.965 97.9873 250.18 107.99 256.611 115.438C263.188 122.74 272.03 126.39 283.138 126.39C289.861 126.39 295.926 124.784 301.334 121.571C306.742 118.359 310.98 113.686 314.049 107.552C317.265 101.419 318.872 94.0444 318.872 85.4286C318.872 76.8127 317.265 69.5111 314.049 63.5238C310.98 57.3905 306.742 52.7175 301.334 49.5048C295.926 46.146 289.861 44.4667 283.138 44.4667C272.176 44.4667 263.407 48.1905 256.83 55.6381C250.253 63.0857 246.965 73.0159 246.965 85.4286Z" fill="#818285"/>
<path d="M398.55 141.724C388.32 141.724 379.185 139.241 371.147 134.276C363.254 129.311 357.043 122.521 352.512 113.905C347.981 105.289 345.716 95.4317 345.716 84.3333C345.716 73.673 347.981 64.181 352.512 55.8571C357.043 47.5333 363.254 41.0349 371.147 36.3619C379.039 31.5429 388.027 29.1333 398.112 29.1333C408.05 29.1333 416.893 31.3238 424.639 35.7048C432.531 40.0857 438.67 46.146 443.054 53.8857C447.439 61.6254 449.485 70.4603 449.193 80.3905C449.193 81.9968 449.12 83.6762 448.973 85.4286C448.827 87.181 448.681 89.0794 448.535 91.1238H363.693C363.985 97.9873 365.666 104.048 368.735 109.305C371.804 114.562 375.824 118.724 380.793 121.79C385.908 124.711 391.681 126.171 398.112 126.171C406.589 126.171 413.75 124.565 419.597 121.352C425.589 118.14 429.9 113.54 432.531 107.552L446.781 113.248C442.397 122.448 436.039 129.53 427.708 134.495C419.377 139.314 409.658 141.724 398.55 141.724ZM431.216 76.8857C431.362 70.6064 429.974 65.0571 427.05 60.2381C424.274 55.4191 420.327 51.6222 415.212 48.8476C410.097 46.073 404.177 44.6857 397.454 44.6857C391.608 44.6857 386.274 46.073 381.451 48.8476C376.627 51.6222 372.608 55.4921 369.393 60.4571C366.324 65.2762 364.497 70.7524 363.912 76.8857H431.216Z" fill="#818285"/>
<path d="M459.815 30.6667H474.942L475.819 46.219C479.327 40.8159 483.93 36.654 489.63 33.7333C495.33 30.6667 501.98 29.1333 509.58 29.1333C517.911 29.1333 525.219 30.9587 531.503 34.6095C537.788 38.1143 542.684 43.4444 546.192 50.6C549.7 57.6095 551.453 66.4444 551.453 77.1048V140.19H535.011V79.0762C535.011 67.6857 532.526 59.0698 527.557 53.2286C522.734 47.2413 515.719 44.2476 506.511 44.2476C497.011 44.2476 489.557 47.3873 484.15 53.6667C478.888 59.946 476.257 69.219 476.257 81.4857V140.19H459.815V30.6667Z" fill="#818285"/>
<path d="M579.4 30.6667V0H595.842V30.6667H625V46H595.842V104.924C595.842 111.641 597.231 116.533 600.008 119.6C602.931 122.667 606.585 124.492 610.969 125.076C615.5 125.66 620.177 125.66 625 125.076V139.314C619.3 140.629 613.673 140.994 608.119 140.41C602.712 139.825 597.815 138.219 593.431 135.59C589.192 132.816 585.758 128.946 583.127 123.981C580.642 119.016 579.4 112.663 579.4 104.924V46H562.958V30.6667H579.4Z" fill="#818285"/>
<path d="M220.814 82.691C220.814 114.447 195.049 140.191 163.266 140.191C131.483 140.191 105.718 114.447 105.718 82.691C105.718 50.9346 131.483 25.191 163.266 25.191C195.049 25.191 220.814 50.9346 220.814 82.691Z" fill="#0172BB"/>
</svg>
