<svg width="20" height="13" viewBox="0 0 20 13" fill="none" xmlns="http://www.w3.org/2000/svg">
<path d="M9.97524 1.76808C10.2509 1.32081 10.7081 0.852851 11.2004 0.65493C12.0478 0.271816 13.1838 0.436595 13.8752 1.04295C14.5443 1.64533 14.8836 2.47108 14.7235 3.39413C14.8876 3.36404 15.0532 3.25958 15.227 3.20019C16.2656 2.90894 17.364 3.22485 18.03 4.10985C18.5301 4.74153 18.6608 5.72304 18.3606 6.48636C18.2116 6.87013 17.9574 7.21534 17.6271 7.5099L17.6604 7.54317C18.6265 7.58983 19.5762 8.33552 19.8692 9.24995C20.187 10.1722 19.9074 11.1577 19.2289 11.8323C18.6744 12.3769 17.9614 12.5654 17.1689 12.5495H2.78103C1.59962 12.5748 0.686822 12.0546 0.195346 11.0106C-0.190232 10.1144 0.000223301 8.96812 0.720298 8.28501C1.1743 7.81307 1.74299 7.61993 2.35637 7.52262C1.66177 6.8822 1.32727 6.00581 1.5224 5.06605C1.66177 4.30459 2.31503 3.53346 3.06524 3.26753C3.72637 3.00625 4.62169 3.05211 5.2272 3.40673L5.24868 3.38061C5.06622 2.34435 5.52836 1.40936 6.39327 0.83628C7.1643 0.317816 8.39732 0.331205 9.15247 0.88228C9.49177 1.08882 9.77132 1.44356 9.97524 1.76808Z" fill="white"/>
<path d="M14.0495 2.15533C14.3587 2.77521 14.1772 3.58744 13.8545 4.14395L11.3581 9.72589L11.3365 9.752L10.4342 4.08933C10.3618 3.54568 10.9464 3.31369 11.2905 3.0524C11.273 2.97247 11.1844 2.97644 11.1288 2.93919L10.2854 2.93044L10.2598 2.90512C10.2644 2.20213 10.6452 1.55295 11.2905 1.21186C11.9644 0.824771 12.9137 0.930028 13.4984 1.42635C13.7358 1.63687 13.9358 1.88132 14.0495 2.15533Z" fill="#645FAA"/>
<path d="M9.44963 1.96115C9.65369 2.33631 9.77159 2.76238 9.69984 3.23405L8.68194 9.7177C8.68741 9.72552 8.67794 9.73427 8.6698 9.73811L8.40626 9.2166L5.85486 3.55393C5.61745 2.82482 5.83738 2.06243 6.37181 1.53986C6.91023 0.996872 7.79608 0.849592 8.50029 1.14415C8.87306 1.30416 9.22903 1.59859 9.44963 1.96115Z" fill="#C9234A"/>
<path d="M17.7409 4.6909C18.084 5.27273 18.0069 6.1531 17.6252 6.69304C17.3887 7.07218 16.9984 7.26135 16.6677 7.50991L11.3813 11.1166H11.3691L11.4282 10.944L14.2305 4.65776C14.6502 3.91672 15.4515 3.54143 16.2991 3.65464C16.8798 3.76003 17.4604 4.13519 17.7409 4.6909Z" fill="#0089CF"/>
<path d="M5.73235 4.65772L8.64853 11.1159H8.60158L2.72228 7.08871C2.12397 6.58774 1.87883 5.83716 2.08183 5.07888C2.234 4.51044 2.70881 3.97925 3.2735 3.7686C4.19817 3.43215 5.23994 3.78995 5.73235 4.65772Z" fill="#F36F21"/>
<path d="M19.2748 9.24987C19.568 9.86497 19.4525 10.7073 19.0336 11.2305C18.6179 11.7316 18.0617 12.0055 17.4094 11.9881L11.1406 11.9921L16.392 8.36088C16.9052 8.03239 17.6851 7.97287 18.2449 8.23892C18.6773 8.40755 19.0845 8.82871 19.2748 9.24987Z" fill="#0DB14B"/>
<path d="M0.713271 9.24987C0.421053 9.86497 0.535619 10.7073 0.955474 11.2305C1.37119 11.7316 1.92562 12.0055 2.57888 11.9881L8.84762 11.9921L3.59597 8.36088C3.08302 8.03239 2.30333 7.97287 1.7441 8.23892C1.31144 8.40755 0.904526 8.82871 0.713271 9.24987Z" fill="#FDB913"/>
</svg>
