<svg width="50" height="50" viewBox="0 0 50 50" fill="none" xmlns="http://www.w3.org/2000/svg">
<circle cx="25" cy="25" r="25" fill="#176BF8"/>
<path d="M40 31.6668V18.3335C39.9994 17.749 39.8451 17.1748 39.5526 16.6688C39.26 16.1627 38.8396 15.7424 38.3333 15.4502L26.6667 8.7835C26.1599 8.49093 25.5851 8.33691 25 8.33691C24.4149 8.33691 23.8401 8.49093 23.3333 8.7835L11.6667 15.4502C11.1604 15.7424 10.74 16.1627 10.4474 16.6688C10.1549 17.1748 10.0006 17.749 10 18.3335V31.6668C10.0006 32.2514 10.1549 32.8255 10.4474 33.3316C10.74 33.8376 11.1604 34.2579 11.6667 34.5502L23.3333 41.2168C23.8401 41.5094 24.4149 41.6634 25 41.6634C25.5851 41.6634 26.1599 41.5094 26.6667 41.2168L38.3333 34.5502C38.8396 34.2579 39.26 33.8376 39.5526 33.3316C39.8451 32.8255 39.9994 32.2514 40 31.6668Z" stroke="white" stroke-width="2" stroke-linecap="round" stroke-linejoin="round"/>
<path d="M10.4502 16.5996L25.0002 25.0163L39.5502 16.5996" stroke="white" stroke-width="2" stroke-linecap="round" stroke-linejoin="round"/>
<path d="M25 41.8V25" stroke="white" stroke-width="2" stroke-linecap="round" stroke-linejoin="round"/>
</svg>
