<svg width="35" height="35" viewBox="0 0 35 35" fill="none" xmlns="http://www.w3.org/2000/svg">
<g clip-path="url(#clip0_2164_71406)">
<path fill-rule="evenodd" clip-rule="evenodd" d="M0 7.37705C0 3.30282 3.30282 0 7.37705 0H27.623C31.6972 0 35 3.30282 35 7.37705V27.623C35 31.6972 31.6972 35 27.6229 35H7.37705C3.30282 35 0 31.6972 0 27.6229V7.37705Z" fill="white" fill-opacity="0.8"/>
<path d="M10 10H26C27.1 10 28 10.9 28 12V24C28 25.1 27.1 26 26 26H10C8.9 26 8 25.1 8 24V12C8 10.9 8.9 10 10 10Z" stroke="#16354B" stroke-width="2" stroke-linecap="round" stroke-linejoin="round"/>
<path d="M28 12L18 19L8 12" stroke="#16354B" stroke-width="2" stroke-linecap="round" stroke-linejoin="round"/>
</g>
<defs>
<clipPath id="clip0_2164_71406">
<rect width="35" height="35" fill="white"/>
</clipPath>
</defs>
</svg>
