<svg width="55" height="53" viewBox="0 0 55 53" fill="none" xmlns="http://www.w3.org/2000/svg">
<path d="M50.7753 15.0254L27.3828 26.5004M27.3828 26.5004L3.99023 15.0254M27.3828 26.5004V50.7254" stroke="white" stroke-width="2" stroke-linecap="round"/>
<path d="M53.3334 21.4C53.2372 18.0568 52.9131 15.9253 51.8213 14.1063C50.2686 11.5193 47.4723 10.0797 41.8798 7.20037L36.6814 4.52402C32.1183 2.17467 29.8367 1 27.3823 1C24.928 1 22.6464 2.17467 18.0833 4.52401L12.8849 7.20037C7.29238 10.0797 4.4961 11.5193 2.94336 14.1063C1.39062 16.6933 1.39062 19.9125 1.39062 26.3509V26.6491C1.39062 33.0875 1.39062 36.3067 2.94336 38.8937C4.4961 41.4807 7.29238 42.9203 12.8849 45.7996L18.0833 48.476C22.6464 50.8253 24.928 52 27.3823 52C29.8367 52 32.1183 50.8253 36.6814 48.476L41.8798 45.7996C47.4723 42.9203 50.2686 41.4807 51.8213 38.8937C52.9131 37.0747 53.2372 34.9432 53.3334 31.6" stroke="white" stroke-width="2" stroke-linecap="round"/>
<path d="M24.0599 16.0472L21.2791 14.3216L23.2398 13.3123L23.7245 13.6131L22.379 14.3057L23.0416 14.7169L24.2863 14.0762L24.771 14.377L23.5264 15.0177L24.1904 15.4297L25.5416 14.7341L26.0263 15.0349L24.0599 16.0472ZM26.1027 11.8385L28.8835 13.5641L28.3522 13.8376L25.336 13.4032L25.3147 13.4142L27.0649 14.5003L26.4497 14.817L23.6689 13.0914L24.2088 12.8134L27.2136 13.2521L27.2392 13.2389L25.4903 12.1537L26.1027 11.8385ZM30.3633 12.8023L29.3318 13.3333L26.551 11.6077L27.591 11.0723C27.8837 10.9216 28.1913 10.8265 28.5139 10.7868C28.8355 10.7466 29.1569 10.7616 29.4778 10.8317C29.7997 10.9013 30.1051 11.0257 30.3938 11.2049C30.6835 11.3847 30.8751 11.5686 30.9687 11.7568C31.0632 11.9446 31.0596 12.1278 30.9579 12.3066C30.857 12.4849 30.6588 12.6502 30.3633 12.8023ZM29.4433 12.704L29.834 12.5029C30.0158 12.4092 30.138 12.3114 30.2006 12.2093C30.2631 12.1062 30.2605 11.9981 30.1927 11.885C30.1249 11.7709 29.9873 11.6495 29.78 11.5209C29.5746 11.3934 29.3749 11.3055 29.1811 11.2573C28.9882 11.2086 28.799 11.1971 28.6133 11.2228C28.4277 11.2485 28.2439 11.3081 28.0621 11.4017L27.6699 11.6036L29.4433 12.704Z" fill="white"/>
<rect x="0.870111" y="1.49012e-08" width="14.6023" height="9.69637" rx="4.84819" transform="matrix(0.870111 -0.492855 0.870111 0.492855 15.8982 15.0031)" stroke="white"/>
</svg>
