<svg width="45" height="45" viewBox="0 0 45 45" fill="none" xmlns="http://www.w3.org/2000/svg">
<path d="M26.0168 22.068C26.0944 24.7082 23.7782 26.8377 20.8435 26.8245L16.5925 26.8054L12.3414 26.7864C9.40672 26.7732 6.96478 24.6223 6.88721 21.9821C6.80965 19.342 9.12585 17.2124 12.0606 17.2256L16.3116 17.2447" stroke="white" stroke-width="2" stroke-linecap="round"/>
<path d="M33.8223 16.713C36.757 16.7262 39.199 18.8771 39.2765 21.5173C39.3541 24.1574 37.0379 26.2869 34.1032 26.2738L29.8522 26.2547M20.1469 21.4314C20.0694 18.7913 22.3856 16.6617 25.3203 16.6749L29.0921 16.6918" stroke="white" stroke-width="2" stroke-linecap="round"/>
<path d="M11.832 13.5L9.33203 10" stroke="white" stroke-width="2" stroke-linecap="round"/>
<path d="M19.332 13.5L21.832 10" stroke="white" stroke-width="2" stroke-linecap="round"/>
<path d="M15.832 13V9" stroke="white" stroke-width="2" stroke-linecap="round"/>
<path d="M24.832 30L22.332 33.5" stroke="white" stroke-width="2" stroke-linecap="round"/>
<path d="M32.332 30L34.832 33.5" stroke="white" stroke-width="2" stroke-linecap="round"/>
<path d="M28.832 30.5V34.5" stroke="white" stroke-width="2" stroke-linecap="round"/>
<path d="M43.832 22.25C43.832 32.2673 43.832 37.276 40.72 40.388C37.6081 43.5 32.5994 43.5 22.582 43.5C12.5647 43.5 7.55601 43.5 4.44402 40.388C1.33203 37.276 1.33203 32.2673 1.33203 22.25C1.33203 12.2327 1.33203 7.22398 4.44402 4.11199C7.55601 1 12.5647 1 22.582 1C32.5994 1 37.6081 1 40.72 4.11199C42.7892 6.18119 43.4826 9.08892 43.7149 13.75" stroke="white" stroke-width="2" stroke-linecap="round"/>
</svg>
