<svg width="20" height="21" viewBox="0 0 20 21" fill="none" xmlns="http://www.w3.org/2000/svg">
<g clip-path="url(#clip0_172_27869)">
<path fill-rule="evenodd" clip-rule="evenodd" d="M9.96094 0.269531C11.9388 0.269531 13.8721 0.865417 15.5166 1.98184C17.1611 3.09825 18.4429 4.68506 19.1997 6.5416C19.9566 8.39814 20.1546 10.441 19.7688 12.4119C19.3829 14.3828 18.4305 16.1932 17.032 17.6141C15.6335 19.035 13.8516 20.0027 11.9118 20.3947C9.97203 20.7868 7.96136 20.5856 6.1341 19.8166C4.30684 19.0476 2.74506 17.7453 1.64624 16.0745C0.547427 14.4036 -0.0390625 12.4392 -0.0390625 10.4297C-0.0390625 7.73509 1.01451 5.1508 2.88987 3.24539C4.76523 1.33998 7.30877 0.269531 9.96094 0.269531V0.269531Z" fill="#F3F3F3"/>
<path fill-rule="evenodd" clip-rule="evenodd" d="M9.96104 2.45117L12.5919 6.44506L15.2229 10.4399L9.96104 13.1333L4.69922 10.4297L7.33013 6.4349L9.96104 2.45117ZM9.96104 14.2093L4.99104 11.515L9.96104 18.4083L14.931 11.515L9.96104 14.2093Z" fill="#343434"/>
<path fill-rule="evenodd" clip-rule="evenodd" d="M9.96094 2.45117L12.5918 6.4349L15.2228 10.4297L9.96094 8.41152V2.45117Z" fill="#343434"/>
<path fill-rule="evenodd" clip-rule="evenodd" d="M9.96094 14.2099L14.9409 11.5156L9.96094 18.419V14.2099Z" fill="#313131"/>
<path fill-rule="evenodd" clip-rule="evenodd" d="M9.96094 8.41211L15.2228 10.4303L9.96094 13.1237V8.41211Z" fill="#151515"/>
<path fill-rule="evenodd" clip-rule="evenodd" d="M9.96104 2.45117L7.33013 6.4349L4.69922 10.4297L9.96104 8.41152V2.45117Z" fill="#8C8C8C"/>
<path fill-rule="evenodd" clip-rule="evenodd" d="M9.96023 14.2099L4.99023 11.5156L9.96023 18.419V14.2099Z" fill="#8A8A8A"/>
<path fill-rule="evenodd" clip-rule="evenodd" d="M9.96104 8.41211L4.69922 10.4303L9.96104 13.1237V8.41211Z" fill="#353535"/>
</g>
<defs>
<clipPath id="clip0_172_27869">
<rect width="20" height="20.3204" fill="white" transform="translate(0 0.269531)"/>
</clipPath>
</defs>
</svg>
