<svg width="13" height="13" viewBox="0 0 13 13" fill="none" xmlns="http://www.w3.org/2000/svg">
<path d="M7.37469 6.20967C7.17691 5.95689 6.92995 5.75199 6.65058 5.60889C6.3712 5.46579 6.06594 5.38783 5.7555 5.3803C5.44506 5.37277 5.13671 5.43585 4.85134 5.56525C4.56598 5.69465 4.31029 5.88735 4.10161 6.13028L2.86654 7.56756C2.49225 8.01863 2.30064 8.60689 2.33298 9.20563C2.36532 9.80436 2.61901 10.3657 3.03943 10.7687C3.45985 11.1717 4.01334 11.3841 4.58071 11.3602C5.14808 11.3363 5.68392 11.078 6.07282 10.6409L6.77681 9.8217" stroke="#CCF6E8" stroke-width="1.2" stroke-linecap="round" stroke-linejoin="round"/>
<path d="M5.3423 7.2832C5.51054 7.55887 5.73295 7.79309 5.99443 7.96998C6.25592 8.14688 6.55037 8.26231 6.8578 8.30845C7.16524 8.35459 7.47848 8.33036 7.77627 8.2374C8.07406 8.14443 8.34944 7.98492 8.58373 7.76967L9.97033 6.4962C10.3923 6.09488 10.6481 5.53458 10.6827 4.93598C10.7173 4.33738 10.5279 3.74838 10.1553 3.29584C9.78271 2.84329 9.25673 2.56341 8.69065 2.51647C8.12458 2.46954 7.56369 2.6593 7.12881 3.0449L6.33412 3.77045" stroke="#CCF6E8" stroke-width="1.2" stroke-linecap="round" stroke-linejoin="round"/>
</svg>
