<svg width="52" height="52" viewBox="0 0 52 52" fill="none" xmlns="http://www.w3.org/2000/svg">
<g filter="url(#filter0_d_172_35042)">
<rect x="4" y="4" width="44" height="44" rx="8" fill="white" fill-opacity="0.2"/>
<circle cx="20.8246" cy="23.412" r="2.58824" stroke="white" stroke-width="1.5"/>
<circle cx="2.58823" cy="2.58823" r="2.58823" transform="matrix(1 0 0 -1 28.5879 31.1768)" stroke="white" stroke-width="1.5"/>
<path d="M20.8242 28.5884V35.059" stroke="white" stroke-width="1.5" stroke-linecap="round"/>
<path d="M31.1758 23.4121V16.9415" stroke="white" stroke-width="1.5" stroke-linecap="round"/>
<path d="M20.8242 16.9414V18.2355" stroke="white" stroke-width="1.5" stroke-linecap="round"/>
<path d="M31.1758 35.0591V33.765" stroke="white" stroke-width="1.5" stroke-linecap="round"/>
<path d="M38.9409 26.0003C38.9409 32.1008 38.9409 35.1511 37.0458 37.0462C35.1506 38.9414 32.1003 38.9414 25.9998 38.9414C19.8992 38.9414 16.849 38.9414 14.9538 37.0462C13.0586 35.1511 13.0586 32.1008 13.0586 26.0003C13.0586 19.8997 13.0586 16.8495 14.9538 14.9543C16.849 13.0591 19.8992 13.0591 25.9998 13.0591C32.1003 13.0591 35.1506 13.0591 37.0458 14.9543C38.3059 16.2144 38.7281 17.9852 38.8696 20.8238" stroke="white" stroke-width="1.5" stroke-linecap="round"/>
</g>
<defs>
<filter id="filter0_d_172_35042" x="0" y="0" width="52" height="52" filterUnits="userSpaceOnUse" color-interpolation-filters="sRGB">
<feFlood flood-opacity="0" result="BackgroundImageFix"/>
<feColorMatrix in="SourceAlpha" type="matrix" values="0 0 0 0 0 0 0 0 0 0 0 0 0 0 0 0 0 0 127 0" result="hardAlpha"/>
<feOffset/>
<feGaussianBlur stdDeviation="2"/>
<feComposite in2="hardAlpha" operator="out"/>
<feColorMatrix type="matrix" values="0 0 0 0 0 0 0 0 0 0 0 0 0 0 0 0 0 0 0.1 0"/>
<feBlend mode="normal" in2="BackgroundImageFix" result="effect1_dropShadow_172_35042"/>
<feBlend mode="normal" in="SourceGraphic" in2="effect1_dropShadow_172_35042" result="shape"/>
</filter>
</defs>
</svg>
