<svg width="35" height="35" viewBox="0 0 35 35" fill="none" xmlns="http://www.w3.org/2000/svg">
<path fill-rule="evenodd" clip-rule="evenodd" d="M0 7.37705C0 3.30282 3.30282 0 7.37705 0H27.623C31.6972 0 35 3.30282 35 7.37705V27.623C35 31.6972 31.6972 35 27.6229 35H7.37705C3.30282 35 0 31.6972 0 27.6229V7.37705ZM17.5 5.83295C11.0579 5.83295 5.83333 11.0386 5.83333 17.4607C5.83333 22.598 9.1766 26.9558 13.8119 28.4936C14.3947 28.6016 14.6089 28.2415 14.6089 27.9345C14.6089 27.8087 14.6067 27.5518 14.6038 27.218C14.6002 26.8154 14.5957 26.3009 14.593 25.7697C11.3476 26.473 10.6629 24.3973 10.6629 24.3973C10.1317 23.0537 9.36741 22.6961 9.36741 22.6961C8.30848 21.9745 9.44692 21.9894 9.44692 21.9894C10.6187 22.0716 11.2353 23.1879 11.2353 23.1879C12.2759 24.9654 13.9644 24.4513 14.6303 24.1541C14.7351 23.4033 15.0373 22.8897 15.3712 22.5995C12.7798 22.3058 10.0556 21.3084 10.0556 16.853C10.0556 15.5836 10.5118 14.5466 11.2577 13.7319C11.1369 13.4392 10.7374 12.257 11.371 10.6548C11.371 10.6548 12.3504 10.3423 14.5801 11.8474C15.5108 11.5894 16.5086 11.4601 17.5 11.4557C18.4913 11.4601 19.4902 11.5894 20.4224 11.8474C22.6496 10.3423 23.6275 10.6548 23.6275 10.6548C24.2626 12.257 23.863 13.4392 23.7423 13.7319C24.4902 14.5466 24.9428 15.5836 24.9428 16.853C24.9428 21.3193 22.2138 22.3024 19.6159 22.5901C20.0343 22.9507 20.407 23.6584 20.407 24.7435C20.407 25.7814 20.401 26.6843 20.397 27.2841L20.397 27.2852L20.397 27.2861L20.397 27.2867L20.397 27.2872V27.2874C20.395 27.585 20.3936 27.8075 20.3936 27.9345C20.3936 28.244 20.6038 28.606 21.1951 28.4921C25.8279 26.9534 29.1667 22.5961 29.1667 17.4607C29.1667 11.0386 23.943 5.83295 17.5 5.83295ZM10.0529 22.5634C10.1359 22.603 10.2273 22.5857 10.2526 22.5277C10.2819 22.4703 10.2337 22.3905 10.1493 22.3524C10.0643 22.3128 9.97336 22.3296 9.94802 22.389C9.92068 22.4465 9.96789 22.5252 10.0529 22.5634ZM10.7254 23.0535C10.6697 23.105 10.5609 23.0807 10.4874 22.9995C10.4108 22.9187 10.3964 22.8103 10.4531 22.7578C10.5102 22.7068 10.6156 22.7306 10.6921 22.8118C10.7686 22.894 10.7835 23.0015 10.7254 23.0535ZM10.9245 23.6224C10.997 23.7259 11.1138 23.7725 11.1853 23.7225C11.2584 23.6715 11.2584 23.5476 11.1868 23.4431C11.1138 23.3406 10.9985 23.2956 10.9265 23.3451C10.8534 23.3946 10.8534 23.5189 10.9245 23.6224ZM11.8151 24.3696C11.751 24.4399 11.6149 24.4211 11.515 24.325C11.4131 24.2314 11.3848 24.0982 11.4489 24.0279C11.514 23.9575 11.6507 23.9773 11.751 24.0724C11.8524 24.166 11.8832 24.2998 11.8151 24.3696ZM12.3932 24.8385C12.5249 24.8776 12.6561 24.8365 12.6844 24.7454C12.7118 24.6528 12.6253 24.5468 12.4936 24.5072C12.3604 24.4661 12.2288 24.5087 12.2014 24.6003C12.1746 24.6924 12.2606 24.7989 12.3932 24.8385ZM13.6387 24.8144C13.6417 24.9105 13.5299 24.9897 13.3912 24.9917C13.2516 24.9947 13.1388 24.9174 13.1373 24.8233C13.1373 24.7258 13.2466 24.6475 13.3863 24.645C13.5249 24.6421 13.6387 24.7198 13.6387 24.8144ZM14.3099 24.8796C14.4475 24.8538 14.5439 24.7572 14.5275 24.6641C14.5097 24.569 14.3864 24.5126 14.2483 24.5363C14.1131 24.5616 14.0152 24.6572 14.0316 24.7538C14.049 24.8459 14.1747 24.9038 14.3099 24.8796Z" fill="#7B7B7B"/>
</svg>
