<svg width="20" height="17" viewBox="0 0 20 17" fill="none" xmlns="http://www.w3.org/2000/svg">
<path d="M13.3016 4.97735L15.0401 3.27983L15.1559 2.56506C11.9879 -0.247725 6.95188 0.0712141 4.09602 3.23055C3.30273 4.10803 2.71422 5.20201 2.40039 6.33168L3.02305 6.24601L6.5 5.68617L6.76844 5.41811C8.31508 3.75957 10.9302 3.53644 12.7159 4.9476L13.3016 4.97735Z" fill="#EA4335"/>
<path d="M17.5162 6.2816C17.1166 4.84473 16.2962 3.55303 15.1555 2.56494L12.7155 4.94741C13.7458 5.76943 14.3327 7.00781 14.3076 8.30668V8.72959C15.5069 8.72959 16.4792 9.67894 16.4792 10.85C16.4792 12.0211 15.5069 12.9466 14.3076 12.9466H9.95828L9.53125 13.3993V15.9425L9.95828 16.3416H14.3076C17.4271 16.3653 19.9757 13.9391 20 10.8931C20.0147 9.04686 19.0824 7.316 17.5162 6.2816Z" fill="#4285F4"/>
<path d="M5.615 16.342H9.9582V12.9469H5.615C5.30555 12.9468 5.00586 12.8819 4.72445 12.7563L4.10828 12.941L2.35758 14.6385L2.20508 15.2162C3.18688 15.9401 4.38477 16.3471 5.615 16.342Z" fill="#34A853"/>
<path d="M5.61487 5.32865C2.49526 5.3468 -0.0184913 7.83088 0.000102489 10.8769C0.0104931 12.5778 0.824087 14.179 2.20495 15.2159L4.72432 12.756C3.63127 12.2738 3.14557 11.0178 3.6394 9.95063C4.13315 8.88343 5.41956 8.40918 6.51245 8.89129C6.99409 9.10374 7.37979 9.48042 7.59737 9.95063L10.1167 7.49074C9.04479 6.12245 7.37916 5.32247 5.61487 5.32865Z" fill="#FBBC05"/>
</svg>
