<svg width="13" height="14" viewBox="0 0 13 14" fill="none" xmlns="http://www.w3.org/2000/svg">
<path d="M6.81761 11.0676L11.1166 6.79278C12.1729 5.74241 12.3287 4.0144 11.3291 2.91054C11.0787 2.63324 10.7742 2.40958 10.434 2.2532C10.0938 2.09683 9.72511 2.01101 9.35047 2.00099C8.97583 1.99097 8.60306 2.05696 8.25491 2.19494C7.90676 2.33291 7.59053 2.53997 7.32552 2.80348L6.5175 3.60696L5.81986 2.91324C4.76356 1.86287 3.02578 1.7079 1.91568 2.70191C1.63682 2.95089 1.4119 3.25376 1.25463 3.59203C1.09737 3.93031 1.01107 4.2969 1.001 4.66944C0.990922 5.04198 1.05729 5.41266 1.19604 5.75885C1.33479 6.10504 1.54302 6.41949 1.80802 6.68302L6.21739 11.0676C6.29698 11.1468 6.40493 11.1912 6.5175 11.1912C6.63006 11.1912 6.73801 11.1468 6.81761 11.0676V11.0676Z" stroke="#CCF6E8" stroke-width="1.2" stroke-linecap="round" stroke-linejoin="round"/>
</svg>
