<svg width="20" height="21" viewBox="0 0 20 21" fill="none" xmlns="http://www.w3.org/2000/svg">
<rect y="0.5" width="20" height="20" fill="#D50C2D"/>
<path d="M16 3.5C16.5523 3.5 17 3.94772 17 4.5V16.5C17 17.0523 16.5523 17.5 16 17.5H15.0625C14.5102 17.5 14.0625 17.0523 14.0625 16.5V11.7365H5.9375V16.5C5.9375 17.0523 5.48978 17.5 4.9375 17.5H4C3.44772 17.5 3 17.0523 3 16.5V4.5C3 3.94772 3.44772 3.5 4 3.5H4.9375C5.48978 3.5 5.9375 3.94772 5.9375 4.5V8.98433H14.0625V4.5C14.0625 3.94772 14.5102 3.5 15.0625 3.5H16Z" fill="white"/>
</svg>
