<svg width="31" height="31" viewBox="0 0 31 31" fill="none" xmlns="http://www.w3.org/2000/svg">
<path d="M11.625 20.667C12.7234 21.4812 14.0592 21.9587 15.5 21.9587C16.9408 21.9587 18.2766 21.4812 19.375 20.667" stroke="white" stroke-width="2" stroke-linecap="round"/>
<path d="M27.9471 16.7379L27.587 19.2403C26.9574 23.6157 26.6426 25.8035 25.1248 27.1104C23.607 28.4173 21.3811 28.4173 16.9293 28.4173H14.072C9.62017 28.4173 7.39427 28.4173 5.87648 27.1104C4.35869 25.8035 4.0439 23.6157 3.41432 19.2403L3.05424 16.7379C2.56413 13.3317 2.31907 11.6286 3.01717 10.1725C3.71526 8.7163 5.20115 7.83117 8.17291 6.06091L9.96166 4.99536C12.6603 3.38778 14.0097 2.58398 15.5007 2.58398C16.9916 2.58398 18.341 3.38778 21.0396 4.99536L22.8284 6.0609C25.8002 7.83117 27.286 8.7163 27.9841 10.1725" stroke="white" stroke-width="2" stroke-linecap="round"/>
</svg>
