<svg width="13" height="13" viewBox="0 0 13 13" fill="none" xmlns="http://www.w3.org/2000/svg">
<path d="M10.2923 1.08301H5.95898C5.81533 1.08301 5.67755 1.14008 5.57597 1.24166C5.47439 1.34324 5.41732 1.48102 5.41732 1.62467C5.41732 1.76833 5.47439 1.90611 5.57597 2.00769C5.67755 2.10927 5.81533 2.16634 5.95898 2.16634H10.2923C10.436 2.16634 10.5738 2.22341 10.6753 2.32499C10.7769 2.42657 10.834 2.56435 10.834 2.70801V6.49967H1.62565C1.48199 6.49967 1.34422 6.55674 1.24263 6.65833C1.14105 6.75991 1.08398 6.89768 1.08398 7.04134V8.12467C1.08398 8.55565 1.25519 8.96898 1.55994 9.27372C1.86468 9.57847 2.27801 9.74967 2.70898 9.74967H4.33398V10.833H2.70898C2.56533 10.833 2.42755 10.8901 2.32597 10.9917C2.22439 11.0932 2.16732 11.231 2.16732 11.3747C2.16732 11.5183 2.22439 11.6561 2.32597 11.7577C2.42755 11.8593 2.56533 11.9163 2.70898 11.9163H10.2923C10.436 11.9163 10.5738 11.8593 10.6753 11.7577C10.7769 11.6561 10.834 11.5183 10.834 11.3747C10.834 11.231 10.7769 11.0932 10.6753 10.9917C10.5738 10.8901 10.436 10.833 10.2923 10.833H8.66732V9.74967H10.2923C10.7233 9.74967 11.1366 9.57847 11.4414 9.27372C11.7461 8.96898 11.9173 8.55565 11.9173 8.12467V2.70801C11.9173 2.27703 11.7461 1.86371 11.4414 1.55896C11.1366 1.25421 10.7233 1.08301 10.2923 1.08301ZM7.58398 10.833H5.41732V9.74967H7.58398V10.833ZM10.834 8.12467C10.834 8.26833 10.7769 8.40611 10.6753 8.50769C10.5738 8.60927 10.436 8.66634 10.2923 8.66634H2.70898C2.56533 8.66634 2.42755 8.60927 2.32597 8.50769C2.22439 8.40611 2.16732 8.26833 2.16732 8.12467V7.58301H10.834V8.12467Z" fill="#CCF6E8"/>
<path d="M3.90355 3.30042L2.78488 4.75234L1.66621 3.30042C1.36427 2.90853 1.36673 2.45798 1.57405 2.09161C1.78415 1.72031 2.21294 1.42871 2.78488 1.42871C3.35682 1.42871 3.7856 1.72031 3.9957 2.09161C4.20302 2.45798 4.20549 2.90853 3.90355 3.30042Z" stroke="#CCF6E8"/>
<path d="M1.85742 5.57129H3.71456" stroke="#CCF6E8" stroke-linecap="round"/>
</svg>
