<svg width="20" height="17" viewBox="0 0 20 17" fill="none" xmlns="http://www.w3.org/2000/svg">
<path d="M19.5088 5.91443C19.4844 5.91436 19.46 5.9125 19.4358 5.90888L12.1297 4.80286C11.7632 4.74716 11.4652 4.37314 11.4652 3.96882V1.02715C11.4652 0.711842 11.6438 0.5 11.9101 0.5C11.9669 0.5 12.0264 0.509838 12.0864 0.529832L19.4223 2.94134C19.7356 3.04385 20.0003 3.44659 20.0003 3.82108V5.33032C19.9999 5.66355 19.7887 5.91443 19.5088 5.91443ZM12.0653 10.6341C11.7287 10.6341 11.4648 10.343 11.4648 9.97085V7.02966C11.4648 6.65723 11.7291 6.36573 12.0666 6.36573C12.0831 6.36573 12.1005 6.3662 12.1181 6.36779L19.4184 7.01506C19.7391 7.04394 19.9999 7.37162 19.9999 7.7458V9.25408C19.9999 9.62857 19.7389 9.95625 19.4187 9.98466L12.118 10.6316C12.1005 10.6334 12.0826 10.6341 12.0653 10.6341ZM11.9103 16.4997C11.6437 16.4997 11.4648 16.288 11.4648 15.9729V13.0315C11.4648 12.6266 11.7632 12.2524 12.1294 12.1978L19.4358 11.0908C19.4606 11.0872 19.485 11.0853 19.5083 11.0853C19.7887 11.0853 19.9998 11.3363 19.9998 11.6697V13.1786C19.9998 13.5588 19.7407 13.9535 19.422 14.0585L12.0859 16.4704C12.0293 16.4895 11.97 16.4994 11.9103 16.4997Z" fill="#F39000"/>
<path d="M0.500805 6.88807C0.210573 6.88807 0 6.64163 0 6.30253V6.05673C0 5.65192 0.281821 5.1746 0.616167 5.01529L9.83344 0.608493C9.90739 0.573107 9.97896 0.555176 10.0458 0.555176C10.2594 0.555176 10.3976 0.740835 10.3976 1.02789V3.96893C10.3976 4.37516 10.1073 4.77012 9.75077 4.84915L0.621404 6.8741C0.58094 6.88347 0.540475 6.88807 0.500805 6.88807ZM9.83456 10.6108C9.81107 10.6108 9.78679 10.609 9.76267 10.6062L0.650919 9.43827C0.291819 9.39336 0 9.02775 0 8.62375V8.37668C0 7.97314 0.291819 7.6077 0.650919 7.562L9.76267 6.3952C9.78727 6.39187 9.81155 6.39044 9.83551 6.39044C10.1562 6.39044 10.3977 6.66528 10.3977 7.02993V9.97128C10.3977 10.1493 10.3387 10.3131 10.2325 10.4311C10.1828 10.4876 10.1215 10.5329 10.0529 10.5638C9.98427 10.5948 9.90984 10.6108 9.83456 10.6108ZM10.0454 16.4454C9.97864 16.4454 9.90723 16.4272 9.83344 16.3919L0.616485 11.9851C0.282456 11.8255 0 11.3491 0 10.9443V10.6971C0 10.3585 0.210573 10.1125 0.500011 10.1125C0.539682 10.1125 0.580622 10.1171 0.621404 10.1262L9.75061 12.1506C10.107 12.2305 10.3977 12.6254 10.3977 13.0316V15.9733C10.3977 16.1193 10.3622 16.2409 10.2952 16.3251C10.2658 16.3632 10.2279 16.3939 10.1846 16.4148C10.1412 16.4357 10.0936 16.4462 10.0454 16.4454Z" fill="#0B314C"/>
</svg>
