<svg width="31" height="31" viewBox="0 0 31 31" fill="none" xmlns="http://www.w3.org/2000/svg">
<path d="M24.541 15.5002C24.541 15.1576 24.6771 14.8291 24.9193 14.5868C25.1616 14.3446 25.4901 14.2085 25.8327 14.2085H27.1243C27.4669 14.2085 27.7955 14.3446 28.0377 14.5868C28.2799 14.8291 28.416 15.1576 28.416 15.5002C28.416 15.8427 28.2799 16.1713 28.0377 16.4135C27.7955 16.6557 27.4669 16.7918 27.1243 16.7918H25.8327C25.4901 16.7918 25.1616 16.6557 24.9193 16.4135C24.6771 16.1713 24.541 15.8427 24.541 15.5002ZM23.7143 21.9585L24.6314 22.8756C24.872 23.1176 25.007 23.445 25.007 23.7862C25.007 24.1274 24.872 24.4548 24.6314 24.6968C24.3894 24.9374 24.062 25.0724 23.7208 25.0724C23.3796 25.0724 23.0522 24.9374 22.8102 24.6968L21.8931 23.7797C21.6815 23.5326 21.5709 23.2148 21.5835 22.8897C21.596 22.5646 21.7308 22.2563 21.9608 22.0262C22.1909 21.7962 22.4992 21.6614 22.8243 21.6489C23.1494 21.6363 23.4673 21.7469 23.7143 21.9585ZM15.4993 6.4585C15.1568 6.4585 14.8282 6.32241 14.586 6.08018C14.3438 5.83794 14.2077 5.5094 14.2077 5.16683V3.87516C14.2077 3.53259 14.3438 3.20405 14.586 2.96182C14.8282 2.71958 15.1568 2.5835 15.4993 2.5835C15.8419 2.5835 16.1705 2.71958 16.4127 2.96182C16.6549 3.20405 16.791 3.53259 16.791 3.87516V5.16683C16.791 5.5094 16.6549 5.83794 16.4127 6.08018C16.1705 6.32241 15.8419 6.4585 15.4993 6.4585ZM8.18852 9.481C7.84966 9.47957 7.52493 9.34504 7.28435 9.10641L6.36727 8.18933C6.23205 8.07354 6.12223 7.93104 6.0447 7.77079C5.96717 7.61054 5.92361 7.43599 5.91673 7.25811C5.90986 7.08022 5.93984 6.90283 6.00478 6.73708C6.06971 6.57133 6.16821 6.42078 6.29409 6.29491C6.41997 6.16903 6.57051 6.07053 6.73627 6.00559C6.90202 5.94065 7.0794 5.91068 7.25729 5.91755C7.43518 5.92442 7.60973 5.96799 7.76998 6.04552C7.93023 6.12305 8.07272 6.23287 8.18852 6.36808L9.04102 7.28516C9.28159 7.52717 9.41662 7.85455 9.41662 8.19579C9.41662 8.53703 9.28159 8.8644 9.04102 9.10641C8.8133 9.33292 8.50937 9.46647 8.18852 9.481ZM23.6885 9.10641C23.4479 9.34504 23.1232 9.47957 22.7843 9.481C22.6144 9.48198 22.4458 9.4494 22.2885 9.38512C22.1311 9.32084 21.988 9.22613 21.8673 9.10641C21.6267 8.8644 21.4917 8.53703 21.4917 8.19579C21.4917 7.85455 21.6267 7.52717 21.8673 7.28516L22.7843 6.36808C22.9039 6.2468 23.0462 6.15026 23.2031 6.08397C23.36 6.01769 23.5284 5.98295 23.6988 5.98175C23.8691 5.98055 24.038 6.01291 24.1958 6.07698C24.3536 6.14105 24.4972 6.23558 24.6185 6.35516C24.7398 6.47475 24.8363 6.61705 24.9026 6.77394C24.9689 6.93084 25.0036 7.09925 25.0048 7.26957C25.0073 7.61354 24.8729 7.94439 24.6314 8.18933L23.6885 9.10641ZM3.87435 14.2085H5.16602C5.50859 14.2085 5.83713 14.3446 6.07936 14.5868C6.3216 14.8291 6.45768 15.1576 6.45768 15.5002C6.45768 15.8427 6.3216 16.1713 6.07936 16.4135C5.83713 16.6557 5.50859 16.7918 5.16602 16.7918H3.87435C3.53178 16.7918 3.20324 16.6557 2.961 16.4135C2.71877 16.1713 2.58268 15.8427 2.58268 15.5002C2.58268 15.1576 2.71877 14.8291 2.961 14.5868C3.20324 14.3446 3.53178 14.2085 3.87435 14.2085ZM7.28435 21.9585C7.52975 21.822 7.81294 21.7692 8.09105 21.8081C8.36915 21.8469 8.62701 21.9754 8.82557 22.1739C9.02413 22.3725 9.15257 22.6304 9.19145 22.9085C9.23032 23.1866 9.17751 23.4698 9.04102 23.7152L8.12393 24.6322C7.88192 24.8728 7.55455 25.0079 7.21331 25.0079C6.87207 25.0079 6.54469 24.8728 6.30268 24.6322C6.06211 24.3902 5.92707 24.0629 5.92707 23.7216C5.92707 23.3804 6.06211 23.053 6.30268 22.811L7.28435 21.9585ZM15.4993 8.396C16.9044 8.396 18.2779 8.81265 19.4462 9.59326C20.6145 10.3739 21.525 11.4834 22.0627 12.7815C22.6004 14.0796 22.7411 15.508 22.467 16.8861C22.1929 18.2642 21.5163 19.53 20.5228 20.5236C19.5292 21.5171 18.2634 22.1937 16.8853 22.4678C15.5072 22.7419 14.0788 22.6013 12.7807 22.0636C11.4826 21.5259 10.3731 20.6153 9.59245 19.447C8.81184 18.2788 8.39518 16.9052 8.39518 15.5002C8.3986 13.6171 9.14817 11.8121 10.4797 10.4805C11.8113 9.14898 13.6163 8.39941 15.4993 8.396ZM15.4993 20.021C16.3935 20.021 17.2675 19.7559 18.011 19.2591C18.7544 18.7623 19.3339 18.0563 19.6761 17.2302C20.0182 16.4041 20.1078 15.4951 19.9333 14.6182C19.7589 13.7412 19.3283 12.9357 18.6961 12.3035C18.0638 11.6712 17.2583 11.2406 16.3813 11.0662C15.5044 10.8918 14.5954 10.9813 13.7693 11.3235C12.9432 11.6656 12.2372 12.2451 11.7404 12.9885C11.2437 13.732 10.9785 14.606 10.9785 15.5002C10.9785 16.6992 11.4548 17.8491 12.3026 18.6969C13.1505 19.5447 14.3004 20.021 15.4993 20.021ZM15.4993 24.5418C15.8419 24.5418 16.1705 24.6779 16.4127 24.9201C16.6549 25.1624 16.791 25.4909 16.791 25.8335V27.1252C16.791 27.4677 16.6549 27.7963 16.4127 28.0385C16.1705 28.2807 15.8419 28.4168 15.4993 28.4168C15.1568 28.4168 14.8282 28.2807 14.586 28.0385C14.3438 27.7963 14.2077 27.4677 14.2077 27.1252V25.8335C14.2077 25.4909 14.3438 25.1624 14.586 24.9201C14.8282 24.6779 15.1568 24.5418 15.4993 24.5418Z" fill="white"/>
</svg>
