<svg width="72" height="20" viewBox="0 0 72 20" fill="none" xmlns="http://www.w3.org/2000/svg">
<path d="M1.16716 5.49686C1.54225 5.57046 1.93093 5.49072 2.24782 5.27516C2.56471 5.0596 2.78388 4.72585 2.85719 4.34724L2.85807 4.34746C2.87494 4.26548 2.98965 3.93909 3.15672 3.74084C3.23948 3.63847 3.32379 3.56612 3.41831 3.51639C3.51527 3.46755 3.62643 3.42701 3.84564 3.42477C3.96523 3.42857 4.07107 3.45187 4.32179 3.62906C4.69121 3.88668 5.18865 4.48859 5.8301 5.12657C6.15692 5.44332 6.53344 5.77329 7.01558 6.04434C7.49305 6.3145 8.097 6.51409 8.75353 6.51163H8.77261C9.99758 6.51163 10.919 6.20429 11.5363 5.63172C12.0599 5.14718 12.2219 4.5838 12.262 4.27578C12.3064 4.18797 12.3599 4.09904 12.4205 4.02713C12.5037 3.92476 12.588 3.85285 12.6827 3.80245C12.779 3.75384 12.8908 3.71352 13.1098 3.71128C13.2292 3.71508 13.3357 3.73816 13.5858 3.91557C13.9552 4.17251 14.4528 4.77488 15.0945 5.41286C15.4213 5.72983 15.7983 6.05958 16.2802 6.33063C16.7577 6.60124 17.3616 6.80038 18.0182 6.79814H18.0375C19.2624 6.79814 20.1839 6.4908 20.8011 5.918C21.4237 5.34162 21.5369 4.64943 21.5393 4.41377C21.5471 4.22274 21.5176 4.03203 21.4523 3.85254C21.3871 3.67305 21.2875 3.50828 21.1592 3.36766C21.0309 3.22704 20.8764 3.11331 20.7046 3.03298C20.5328 2.95264 20.3469 2.90727 20.1577 2.89946C19.8619 2.88703 19.5695 2.96686 19.3202 3.1281C19.0709 3.28933 18.8768 3.52416 18.7643 3.80065C18.6439 3.83806 18.4102 3.88623 18.0182 3.88578C17.8802 3.88197 17.7652 3.8533 17.5123 3.67633C17.1391 3.41939 16.6432 2.82263 16.0091 2.18756C15.686 1.8726 15.3144 1.54352 14.8378 1.27135C14.3656 0.999851 13.765 0.796898 13.1103 0.79981C12.3606 0.796226 11.6714 1.00881 11.1396 1.34102C10.3344 1.8428 9.89486 2.53164 9.64147 3.05739C9.5683 3.21133 9.50313 3.36903 9.44622 3.52983C9.3151 3.56388 9.09433 3.60039 8.75375 3.59994C8.61574 3.59613 8.50081 3.56724 8.24787 3.39072C7.8749 3.13355 7.37879 2.53656 6.74467 1.90194C6.42139 1.58631 6.04997 1.25769 5.57316 0.98529C5.10124 0.71379 4.5004 0.51106 3.84586 0.513748C3.09548 0.509044 2.40678 0.721854 1.87494 1.05384C1.06976 1.5554 0.63 2.24423 0.376618 2.77021C0.12368 3.3029 0.043361 3.70679 0.0264985 3.78968C-0.00964261 3.97739 -0.00880648 4.17046 0.0289591 4.35784C0.0667247 4.54523 0.14068 4.72327 0.246602 4.8818C0.352524 5.04033 0.488338 5.17624 0.646288 5.28178C0.804239 5.38731 0.981232 5.46039 1.16716 5.49686ZM1.16694 11.8545C1.54207 11.9281 1.93081 11.8484 2.2478 11.6329C2.56479 11.4174 2.78412 11.0837 2.85763 10.7051H2.85807C2.87494 10.6231 2.98965 10.2965 3.15694 10.0987C3.2397 9.99634 3.32401 9.92443 3.41831 9.87425C3.51505 9.82587 3.62687 9.78487 3.84586 9.78286C3.96523 9.78622 4.07151 9.80974 4.32201 9.98671C4.69099 10.2445 5.18888 10.8462 5.83032 11.4842C6.15736 11.801 6.53433 12.1303 7.01624 12.4015C7.49039 12.6699 8.08923 12.8688 8.74044 12.8688H8.75397C9.98871 12.872 10.9164 12.5648 11.5367 11.9891C12.0597 11.5051 12.2221 10.9423 12.2625 10.6341C12.306 10.5453 12.3593 10.4617 12.4214 10.385C12.5046 10.2826 12.5889 10.2105 12.6836 10.1603C12.7799 10.1117 12.8917 10.0709 13.1107 10.0691C13.2301 10.0723 13.3366 10.096 13.5869 10.2734C13.9558 10.5304 14.4535 11.1323 15.0952 11.7703C15.422 12.087 15.799 12.417 16.2809 12.6881C16.7584 12.9584 17.3623 13.1578 18.0188 13.1553H18.0381C19.2631 13.1553 20.1841 12.848 20.8018 12.2756C21.4244 11.6995 21.5376 11.0069 21.54 10.7714C21.5557 10.3856 21.4189 10.0094 21.1598 9.72537C20.9007 9.44138 20.5405 9.27294 20.1584 9.2571C19.8626 9.24471 19.5703 9.32449 19.321 9.48564C19.0717 9.64678 18.8776 9.88148 18.765 10.1579C18.6447 10.1953 18.4109 10.2434 18.0188 10.243C17.8808 10.2392 17.7659 10.2105 17.513 10.0335C17.1398 9.77636 16.6439 9.18005 16.0097 8.54498C15.6863 8.22957 15.3151 7.90072 14.8385 7.62877C14.3663 7.35727 13.7653 7.15432 13.1109 7.15678C12.3612 7.15342 11.6721 7.36623 11.1402 7.69822C10.3351 8.2 9.89552 8.88861 9.64214 9.41414C9.56903 9.56808 9.50393 9.72577 9.44711 9.88657C9.31598 9.92062 9.09522 9.95714 8.75442 9.95691C8.61685 9.9531 8.5017 9.92421 8.24876 9.74746C7.87557 9.4903 7.37945 8.89376 6.74533 8.25869C6.42184 7.94328 6.05064 7.61443 5.57427 7.34226C5.1019 7.07121 4.50128 6.86803 3.84653 6.8705C3.09659 6.86736 2.40767 7.07995 1.87605 7.41193C1.0702 7.91327 0.631331 8.6021 0.377727 9.12807C0.124567 9.66077 0.0446922 10.0647 0.027386 10.1478C-0.00891513 10.3354 -0.00822728 10.5284 0.0294101 10.7157C0.0670476 10.9031 0.140896 11.0811 0.246733 11.2396C0.352569 11.3982 0.488318 11.534 0.646215 11.6396C0.804111 11.7451 0.981059 11.8181 1.16694 11.8545ZM20.1575 15.6147C19.8617 15.6025 19.5694 15.6824 19.3201 15.8436C19.0708 16.0048 18.8767 16.2395 18.7641 16.5159C18.6439 16.5531 18.4102 16.6017 18.0179 16.6013C17.8804 16.597 17.765 16.5686 17.5125 16.3918C17.1393 16.1345 16.643 15.5379 16.0089 14.9026C15.6858 14.5872 15.3146 14.2586 14.838 13.9862C14.3659 13.7147 13.7648 13.512 13.1105 13.5142C12.3603 13.5111 11.6716 13.7239 11.1394 14.0559C10.3342 14.5574 9.89508 15.2463 9.64125 15.7718C9.56796 15.9259 9.50271 16.0838 9.44578 16.2449C9.31465 16.2787 9.09411 16.3152 8.75375 16.315C8.61619 16.3105 8.50126 16.2823 8.2481 16.1056C7.8749 15.8484 7.37901 15.2514 6.74467 14.6166C6.42139 14.3014 6.0502 13.9723 5.57361 13.6997C5.10146 13.4284 4.50062 13.2252 3.84586 13.2281C3.09592 13.2248 2.407 13.4374 1.87494 13.7696C1.06954 14.2711 0.630444 14.9597 0.377062 15.4857C0.123902 16.0182 0.0438047 16.4223 0.0267203 16.5052C-0.0462752 16.8843 0.0328693 17.2771 0.246743 17.5972C0.460617 17.9174 0.791701 18.1387 1.16716 18.2124C1.54227 18.286 1.93098 18.2063 2.24793 17.9908C2.56488 17.7753 2.78417 17.4416 2.85763 17.063L2.85852 17.0632C2.8756 16.981 2.99009 16.6546 3.15694 16.4561C3.23992 16.3538 3.32423 16.2821 3.41875 16.2317C3.51549 16.1831 3.62687 16.1423 3.84586 16.1405C3.96501 16.1439 4.07151 16.1674 4.32179 16.3446C4.69121 16.6017 5.1891 17.2039 5.83032 17.8423C6.15714 18.1588 6.53389 18.4888 7.01602 18.7601C7.49372 19.0302 8.09744 19.2298 8.75375 19.2274H8.77305C9.99825 19.2274 10.9197 18.92 11.537 18.3472C12.0599 17.8627 12.2223 17.2993 12.2627 16.9915C12.3061 16.9027 12.3594 16.8192 12.4216 16.7426C12.5041 16.6403 12.5889 16.5681 12.6832 16.518C12.7799 16.4693 12.8913 16.4286 13.1107 16.4268C13.2301 16.4301 13.3361 16.4537 13.5866 16.6306C13.9556 16.888 14.4533 17.4904 15.095 18.1284C15.4218 18.4451 15.7987 18.7751 16.2807 19.0461C16.7581 19.3167 17.3621 19.5159 18.0186 19.5137H18.0379C19.2631 19.5137 20.185 19.2063 20.802 18.6333C21.4242 18.0571 21.5378 17.3645 21.5402 17.1291C21.5555 16.7432 21.4184 16.367 21.1592 16.0831C20.8999 15.7991 20.5396 15.6307 20.1575 15.6147Z" fill="black"/>
<path d="M26.1322 13.759C26.0422 13.759 25.9652 13.7234 25.9009 13.652C25.8303 13.5872 25.7949 13.5093 25.7949 13.4185V4.56548C25.7949 4.46819 25.8303 4.38712 25.9009 4.32227C25.9652 4.25741 26.0422 4.22498 26.1322 4.22498H28.0208C28.1236 4.22498 28.2039 4.25741 28.2617 4.32227C28.326 4.38712 28.3581 4.46819 28.3581 4.56548V11.6187H32.4051C32.5079 11.6187 32.5914 11.6544 32.6557 11.7257C32.7263 11.7906 32.7617 11.8749 32.7617 11.9787V13.4185C32.7617 13.5158 32.7263 13.5969 32.6557 13.6617C32.5914 13.7266 32.5079 13.759 32.4051 13.759H26.1322ZM34.0818 5.694C33.979 5.694 33.8987 5.66157 33.8409 5.59671C33.7767 5.52537 33.7445 5.44106 33.7445 5.34377V4.07905C33.7445 3.97528 33.7767 3.89096 33.8409 3.82611C33.9116 3.75476 33.9919 3.71909 34.0818 3.71909H35.7681C35.8644 3.71909 35.9479 3.75476 36.0186 3.82611C36.0829 3.89096 36.115 3.97528 36.115 4.07905V5.34377C36.115 5.44106 36.0829 5.52537 36.0186 5.59671C35.9479 5.66157 35.8644 5.694 35.7681 5.694H34.0818ZM34.0818 13.759C33.9919 13.759 33.9116 13.7234 33.8409 13.652C33.7767 13.5872 33.7445 13.5093 33.7445 13.4185V7.01709C33.7445 6.91981 33.7767 6.83874 33.8409 6.77388C33.9116 6.70902 33.9919 6.67659 34.0818 6.67659H35.7681C35.8644 6.67659 35.9479 6.70902 36.0186 6.77388C36.0829 6.83874 36.115 6.91981 36.115 7.01709V13.4185C36.115 13.5158 36.0829 13.5969 36.0186 13.6617C35.9479 13.7266 35.8644 13.759 35.7681 13.759H34.0818ZM42.5903 16.3468C42.4939 16.3468 42.4104 16.3144 42.3398 16.2496C42.2755 16.1847 42.2434 16.1036 42.2434 16.0063V13.0002C41.813 13.5969 41.1642 13.8952 40.297 13.8952C39.4233 13.8952 38.7359 13.6131 38.2349 13.0488C37.7338 12.4846 37.464 11.7128 37.4255 10.7334L37.4158 10.2178L37.4255 9.71192C37.464 8.69366 37.7306 7.91213 38.2252 7.36733C38.7263 6.81604 39.4169 6.54039 40.297 6.54039C40.7659 6.54039 41.1738 6.62795 41.5207 6.80306C41.8676 6.97169 42.1535 7.20518 42.3783 7.50353V7.01709C42.3783 6.91981 42.4104 6.83874 42.4747 6.77388C42.5453 6.70902 42.6288 6.67659 42.7252 6.67659H44.3344C44.4308 6.67659 44.5111 6.70902 44.5753 6.77388C44.6395 6.83874 44.6716 6.91981 44.6716 7.01709V16.0063C44.6716 16.1036 44.6395 16.1847 44.5753 16.2496C44.5111 16.3144 44.4308 16.3468 44.3344 16.3468H42.5903ZM41.0678 11.9981C41.4468 11.9981 41.7327 11.8847 41.9254 11.6576C42.1181 11.4242 42.2241 11.1291 42.2434 10.7723C42.2627 10.5389 42.2723 10.3735 42.2723 10.2762C42.2723 10.1659 42.2627 9.99081 42.2434 9.75084C42.2241 9.36169 42.1213 9.04389 41.9351 8.79743C41.7552 8.55746 41.4661 8.43747 41.0678 8.43747C40.6631 8.43747 40.374 8.55746 40.2006 8.79743C40.0336 9.03741 39.9372 9.37142 39.9115 9.79948C39.8987 9.89028 39.8922 10.0297 39.8922 10.2178C39.8922 10.4059 39.8987 10.5453 39.9115 10.6361C39.9372 11.0642 40.0336 11.3982 40.2006 11.6382C40.374 11.8782 40.6631 11.9981 41.0678 11.9981ZM48.7862 13.8952C47.996 13.8952 47.3569 13.6261 46.8686 13.0878C46.3804 12.5559 46.1363 11.8003 46.1363 10.821V7.01709C46.1363 6.91981 46.1716 6.83874 46.2423 6.77388C46.3065 6.70902 46.3836 6.67659 46.4736 6.67659H48.2755C48.3718 6.67659 48.4553 6.70902 48.526 6.77388C48.5902 6.83874 48.6224 6.91981 48.6224 7.01709V10.7334C48.6224 11.5766 48.995 11.9981 49.7401 11.9981C50.0999 11.9981 50.3825 11.8879 50.5881 11.6674C50.7872 11.4469 50.8868 11.1355 50.8868 10.7334V7.01709C50.8868 6.91981 50.9221 6.83874 50.9928 6.77388C51.057 6.70902 51.1406 6.67659 51.2433 6.67659H53.0163C53.1191 6.67659 53.2026 6.70902 53.2669 6.77388C53.3247 6.83874 53.3536 6.91981 53.3536 7.01709V13.4185C53.3536 13.5093 53.3247 13.5872 53.2669 13.652C53.2026 13.7234 53.1191 13.759 53.0163 13.759H51.3782C51.2755 13.759 51.1919 13.7266 51.1277 13.6617C51.057 13.5969 51.0217 13.5158 51.0217 13.4185V12.9029C50.5528 13.5645 49.8076 13.8952 48.7862 13.8952ZM55.2326 5.694C55.1362 5.694 55.0559 5.66157 54.9917 5.59671C54.9275 5.52537 54.8953 5.44106 54.8953 5.34377V4.07905C54.8953 3.97528 54.9275 3.89096 54.9917 3.82611C55.0624 3.75476 55.1427 3.71909 55.2326 3.71909H56.9189C57.0152 3.71909 57.0987 3.75476 57.1694 3.82611C57.2336 3.89096 57.2658 3.97528 57.2658 4.07905V5.34377C57.2658 5.44106 57.2336 5.52537 57.1694 5.59671C57.0987 5.66157 57.0152 5.694 56.9189 5.694H55.2326ZM55.2326 13.759C55.1427 13.759 55.0624 13.7234 54.9917 13.652C54.9275 13.5872 54.8953 13.5093 54.8953 13.4185V7.01709C54.8953 6.91981 54.9275 6.83874 54.9917 6.77388C55.0624 6.70902 55.1427 6.67659 55.2326 6.67659H56.9189C57.0152 6.67659 57.0987 6.70902 57.1694 6.77388C57.2336 6.83874 57.2658 6.91981 57.2658 7.01709V13.4185C57.2658 13.5158 57.2336 13.5969 57.1694 13.6617C57.0987 13.7266 57.0152 13.759 56.9189 13.759H55.2326ZM59.9638 13.759C59.8675 13.759 59.7872 13.7266 59.7229 13.6617C59.6523 13.5969 59.6169 13.5158 59.6169 13.4185V8.52503H58.6052C58.5088 8.52503 58.4253 8.49585 58.3546 8.43747C58.2904 8.37262 58.2583 8.2883 58.2583 8.18453V7.01709C58.2583 6.91981 58.2904 6.83874 58.3546 6.77388C58.4253 6.70902 58.5088 6.67659 58.6052 6.67659H59.6169V6.26799C59.6169 5.35999 59.8771 4.70168 60.3974 4.29308C60.9178 3.88448 61.6662 3.68018 62.6426 3.68018H63.7026C63.8053 3.68018 63.8888 3.7126 63.9531 3.77746C64.0237 3.84232 64.0591 3.92339 64.0591 4.02068V5.18811C64.0591 5.29189 64.0237 5.3762 63.9531 5.44106C63.8888 5.49943 63.8053 5.52861 63.7026 5.52861H62.7486C62.4595 5.52861 62.254 5.59672 62.1319 5.73292C62.0098 5.86263 61.9488 6.06369 61.9488 6.33609V6.67659H63.5676C63.6704 6.67659 63.7539 6.70902 63.8182 6.77388C63.8888 6.83874 63.9242 6.91981 63.9242 7.01709V8.18453C63.9242 8.2883 63.8888 8.37262 63.8182 8.43747C63.7539 8.49585 63.6704 8.52503 63.5676 8.52503H61.9488V13.4185C61.9488 13.5093 61.9167 13.5872 61.8525 13.652C61.7946 13.7234 61.7143 13.759 61.6116 13.759H59.9638ZM66.1693 16.3468C66.0923 16.3468 66.0248 16.3209 65.967 16.269C65.9156 16.2106 65.8899 16.1425 65.8899 16.0647C65.8899 15.9999 65.8995 15.9382 65.9188 15.8799L66.9788 13.3212L64.3963 7.14357C64.3642 7.06574 64.3482 7.01385 64.3482 6.98791C64.3674 6.89711 64.406 6.82252 64.4638 6.76415C64.5216 6.70578 64.5923 6.67659 64.6758 6.67659H66.285C66.4713 6.67659 66.5997 6.77064 66.6704 6.95872L68.1736 10.8307L69.7057 6.95872C69.7957 6.77064 69.9306 6.67659 70.1104 6.67659H71.7003C71.7839 6.67659 71.8545 6.70578 71.9123 6.76415C71.9702 6.82252 71.9991 6.88738 71.9991 6.95872C71.9991 7.02358 71.9894 7.08519 71.9701 7.14357L68.1543 16.0647C68.0644 16.2528 67.9263 16.3468 67.74 16.3468H66.1693Z" fill="black"/>
</svg>
