<svg fill="none" height="24" viewBox="0 0 24 24" width="24" xmlns="http://www.w3.org/2000/svg"><g stroke="white" stroke-linecap="round" stroke-linejoin="round" stroke-width="1.5"><path d="m9 22h12"/><path d="m2 22h4"/><path d="m3 12.9999v5c0 .55.45 1 1 1h1.59998c.55 0 1-.45 1-1v-8.62002c0-.55-.45-1-1-1h-1.59998c-.55 0-1 .45-1 1"/><path d="m12.7992 5.18994h-1.6c-.55 0-1 .45-1 1v11.80996c0 .55.45 1 1 1h1.6c.55 0 1-.45 1-1v-11.80996c0-.55-.45-1-1-1z"/><path d="m21.0004 3c0-.55-.45-1-1-1h-1.6c-.55 0-1 .45-1 1v15c0 .55.45 1 1 1h1.6c.55 0 1-.45 1-1v-10.87"/></g></svg>