<svg width="52" height="52" viewBox="0 0 52 52" fill="none" xmlns="http://www.w3.org/2000/svg">
<path d="M47.6673 22.7502V26.0002C47.6673 36.2139 47.6673 41.3208 44.4943 44.4938C41.3213 47.6668 36.2144 47.6668 26.0007 47.6668C15.7869 47.6668 10.68 47.6668 7.50699 44.4938C4.33398 41.3208 4.33398 36.2139 4.33398 26.0002C4.33398 23.5554 4.33398 21.4033 4.3775 19.5002M29.2507 4.3335H26.0007C15.7869 4.3335 10.68 4.3335 7.50699 7.50651C6.55168 8.46182 5.88399 9.59244 5.41732 10.9849" stroke="white" stroke-width="2" stroke-linecap="round"/>
<path d="M15.166 30.3332L19.0593 25.6613C20.602 23.8099 21.3734 22.8843 22.3882 22.8843C23.4031 22.8843 24.1744 23.8099 25.7172 25.6613L26.2815 26.3384C27.8243 28.1897 28.5956 29.1154 29.6105 29.1154C30.6253 29.1154 31.3967 28.1897 32.9394 26.3384L36.8327 21.6665" stroke="white" stroke-width="2" stroke-linecap="round"/>
<circle cx="41.166" cy="10.8335" r="6.5" stroke="white" stroke-width="2"/>
</svg>
