<svg width="52" height="51" viewBox="0 0 52 51" fill="none" xmlns="http://www.w3.org/2000/svg">
<path d="M36.7337 5.21894C38.3094 5.51962 39.2435 5.8501 40.0507 6.84427C41.0616 8.0893 41.0082 9.43495 40.9013 12.1262C40.5172 21.8015 38.3489 34 26.109 34C13.8692 34 11.7008 21.8015 11.3167 12.1262C11.2099 9.43495 11.1565 8.0893 12.1674 6.84427C13.1783 5.59924 14.3882 5.3951 16.808 4.98683C19.1966 4.58381 22.319 4.25 26.109 4.25C27.6353 4.25 29.0533 4.30413 30.3587 4.39512" stroke="white" stroke-width="2" stroke-linecap="round"/>
<path d="M40.9844 10.625L43.0002 11.2969C45.1041 11.9982 46.156 12.3489 46.7577 13.1837C47.3593 14.0185 47.3593 15.1273 47.3593 17.345L47.3592 17.4991C47.3592 19.3282 47.3592 20.2427 46.9189 20.991C46.4786 21.7392 45.6792 22.1833 44.0803 23.0716L37.7969 26.5625" stroke="white" stroke-width="2"/>
<path d="M11.2343 10.625L9.21842 11.2969C7.11456 11.9982 6.06262 12.3489 5.46095 13.1837C4.85929 14.0185 4.85932 15.1273 4.85938 17.345L4.85938 17.4991C4.85943 19.3282 4.85946 20.2427 5.29973 20.991C5.74001 21.7392 6.53946 22.1833 8.13835 23.0716L14.4218 26.5625" stroke="white" stroke-width="2"/>
<path d="M26.1094 36.125V40.375" stroke="white" stroke-width="2" stroke-linecap="round"/>
<path d="M33.5469 46.75H18.6719L19.3927 43.1458C19.5914 42.1525 20.4635 41.4375 21.4765 41.4375H30.7423C31.7552 41.4375 32.6274 42.1525 32.826 43.1458L33.5469 46.75Z" stroke="white" stroke-width="2" stroke-linecap="round" stroke-linejoin="round"/>
<path d="M38.8594 46.75H13.3594" stroke="white" stroke-width="2" stroke-linecap="round"/>
</svg>
