<svg width="52" height="52" viewBox="0 0 52 52" fill="none" xmlns="http://www.w3.org/2000/svg">
<path d="M41.166 41.1665L37.916 37.9165" stroke="white" stroke-width="2" stroke-linecap="round"/>
<path d="M41.166 10.8335L37.916 14.0835" stroke="white" stroke-width="2" stroke-linecap="round"/>
<path d="M10.834 41.1665L14.084 37.9165" stroke="white" stroke-width="2" stroke-linecap="round"/>
<path d="M10.834 10.8335L14.084 14.0835" stroke="white" stroke-width="2" stroke-linecap="round"/>
<path d="M4.33398 26H8.66732" stroke="white" stroke-width="2" stroke-linecap="round"/>
<path d="M43.3335 26L47.6669 26" stroke="white" stroke-width="2" stroke-linecap="round"/>
<path d="M26 8.66697L26 4.33363" stroke="white" stroke-width="2" stroke-linecap="round"/>
<path d="M21.9292 31.1216C19.3908 28.5832 19.3908 24.4676 21.9292 21.9292C24.4676 19.3908 28.5832 19.3908 31.1216 21.9292C32.0872 22.8948 32.7615 24.8992 33.2265 27.0124C33.9218 30.1726 34.2695 31.7527 33.0111 33.0111C31.7527 34.2695 30.1726 33.9218 27.0124 33.2265C24.8992 32.7615 22.8948 32.0872 21.9292 31.1216Z" stroke="white" stroke-width="2"/>
<path d="M19.5006 46.6749C10.7103 43.914 4.33398 35.7017 4.33398 26.0002C4.33398 14.034 14.0345 4.3335 26.0006 4.3335C37.9668 4.3335 47.6673 14.034 47.6673 26.0002C47.6673 35.7017 41.291 43.914 32.5006 46.6749" stroke="white" stroke-width="2" stroke-linecap="round"/>
</svg>
