<svg width="541" height="79" viewBox="0 0 541 79" fill="none" xmlns="http://www.w3.org/2000/svg">
<path d="M84.892 1.06278L84.9425 78.1901H70.8949L70.8444 30.8206C70.8444 29.8084 70.8949 28.7456 70.9455 27.6322C70.996 26.5188 71.0971 25.3548 71.2487 24.1908L49.2677 66.044C48.0549 68.372 46.1853 69.4854 43.7093 69.4854H41.4859C40.2226 69.4854 39.1615 69.1818 38.2014 68.6251C37.2413 68.0178 36.4834 67.208 35.9275 66.044L13.6939 24.0896C13.795 25.3548 13.896 26.5188 13.9465 27.6828C13.9971 28.8468 14.0476 29.9096 14.0476 30.9218L14.0981 78.2913H0.050531L0 1.11339H12.0769C12.7338 1.11339 13.3402 1.11339 13.896 1.16399C14.4519 1.2146 14.9066 1.31582 15.3109 1.46764C15.7151 1.61947 16.0688 1.87251 16.4226 2.22677C16.7763 2.58103 17.0795 3.03651 17.3827 3.64381L38.9594 44.7379C39.6163 46.0031 40.2732 47.2683 40.829 48.5841C41.4354 49.8999 41.9912 51.2158 42.4965 52.6328C43.0018 51.2158 43.5577 49.8493 44.1641 48.4829C44.7704 47.1165 45.3768 45.8513 46.0337 44.5861L67.4083 3.5932C67.7115 2.9859 68.0652 2.53042 68.4189 2.17616C68.7726 1.8219 69.1769 1.56886 69.5811 1.41704C69.9854 1.26521 70.4402 1.16399 70.9455 1.11339C71.4508 1.06278 72.0571 1.06278 72.7646 1.06278H84.892Z" fill="white"/>
<path d="M112.885 13.563V33.4015H138.555V45.4463H112.885V65.6897H145.882V78.19L96.8672 78.2406V1.06268L145.882 1.01207V13.5124L112.885 13.563Z" fill="white"/>
<path d="M225.166 1.01228L194.242 78.1396H179.79L148.764 1.01228H161.599C162.963 1.01228 164.125 1.31593 164.984 1.97384C165.843 2.63175 166.5 3.49209 166.904 4.50426L183.579 48.9385C184.236 50.6086 184.843 52.4305 185.449 54.4042C186.056 56.3779 186.662 58.4529 187.167 60.5784C187.622 58.4023 188.127 56.3779 188.683 54.4042C189.239 52.4305 189.845 50.6086 190.452 48.9385L206.975 4.50426C207.329 3.64392 207.935 2.83418 208.845 2.07506C209.755 1.36654 210.866 0.961672 212.231 0.961672L225.166 1.01228Z" fill="white"/>
<path d="M271.957 15.7394C271.452 16.5492 270.947 17.1565 270.441 17.5107C269.936 17.865 269.279 18.0674 268.471 18.0674C267.713 18.0674 266.854 17.8144 265.944 17.2577C265.035 16.701 263.973 16.0937 262.811 15.4864C261.598 14.8285 260.234 14.2718 258.668 13.7151C257.101 13.1584 255.282 12.9054 253.21 12.9054C249.522 12.9054 246.793 13.7151 244.923 15.3852C243.104 17.0552 242.144 19.1808 242.144 21.863C242.144 23.5837 242.649 24.9502 243.66 26.0636C244.671 27.1769 245.984 28.1385 247.652 28.9482C249.319 29.758 251.139 30.4665 253.261 31.1244C255.333 31.7823 257.505 32.4402 259.678 33.1993C261.851 33.9585 264.024 34.8694 266.096 35.8816C268.168 36.8938 270.037 38.2096 271.705 39.7784C273.372 41.3473 274.686 43.2198 275.697 45.4972C276.707 47.724 277.213 50.5074 277.213 53.6958C277.213 57.1878 276.606 60.4773 275.393 63.5644C274.181 66.6515 272.412 69.2832 270.138 71.6112C267.864 73.8885 264.984 75.7104 261.649 77.0263C258.263 78.3421 254.423 79 250.178 79C247.753 79 245.328 78.747 242.902 78.2409C240.477 77.7348 238.152 77.0769 235.878 76.1659C233.655 75.3056 231.533 74.2428 229.511 72.9776C227.541 71.763 225.772 70.346 224.307 68.8277L228.905 61.2364C229.309 60.6797 229.815 60.2243 230.421 59.8194C231.078 59.4651 231.735 59.2627 232.442 59.2627C233.402 59.2627 234.413 59.617 235.474 60.3255C236.535 61.034 237.748 61.7931 239.112 62.6535C240.477 63.5138 242.094 64.2729 243.913 64.9815C245.732 65.69 247.905 66.0442 250.482 66.0442C254.17 66.0442 257.051 65.1839 259.122 63.4632C261.144 61.7425 262.154 59.2121 262.154 55.8719C262.154 53.9488 261.649 52.3293 260.638 51.1653C259.628 49.9507 258.314 48.9386 256.697 48.1288C255.08 47.3191 253.21 46.6106 251.139 46.0539C249.067 45.4466 246.894 44.8393 244.721 44.1308C242.548 43.4223 240.375 42.5619 238.304 41.6003C236.232 40.5882 234.362 39.323 232.745 37.6529C231.128 36.0334 229.815 34.0091 228.804 31.5799C227.793 29.1507 227.288 26.1648 227.288 22.6222C227.288 19.7375 227.844 16.954 229.006 14.2718C230.118 11.5895 231.785 9.21093 234.009 7.08538C236.181 5.01043 238.91 3.28975 242.094 2.02453C245.277 0.759323 248.966 0.101413 253.109 0.101413C257.758 0.101413 262.053 0.809931 265.995 2.22697C269.936 3.644 273.271 5.66834 276 8.19877L271.957 15.7394Z" fill="white"/>
<path d="M314.707 0.910966C319.962 0.910966 324.51 1.51827 328.35 2.78348C332.19 3.99808 335.323 5.76938 337.799 7.94554C340.275 10.1723 342.095 12.804 343.307 15.8405C344.47 18.877 345.076 22.2171 345.076 25.7597C345.076 29.5554 344.47 33.0473 343.206 36.1851C341.994 39.3228 340.073 42.0556 337.597 44.333C335.071 46.6104 331.938 48.3817 328.097 49.6469C324.257 50.9121 319.81 51.5194 314.656 51.5194H304.55V78.0383H288.633L288.734 0.961574L314.707 0.910966ZM314.757 39.3228C319.76 39.3228 323.398 38.1082 325.723 35.679C328.047 33.2498 329.209 29.9602 329.209 25.8103C329.209 23.8872 328.906 22.1665 328.35 20.5977C327.744 19.0288 326.885 17.6624 325.672 16.549C324.51 15.4356 322.994 14.5753 321.175 13.9679C319.356 13.3606 317.233 13.057 314.757 13.057H304.651V39.3228H314.757Z" fill="white"/>
<path d="M474.484 58.9588C475.343 58.9588 476.101 59.2625 476.707 59.9204L483.024 66.6513C479.891 70.5988 476.051 73.6353 471.452 75.7102C466.854 77.7852 461.346 78.7974 454.979 78.7974C449.219 78.7974 444.014 77.8358 439.416 75.8621C434.817 73.8883 430.926 71.1555 427.692 67.6635C424.458 64.1715 421.982 60.0216 420.264 55.1632C418.546 50.3554 417.637 45.0921 417.637 39.3734C417.637 35.5271 418.041 31.8833 418.9 28.4419C419.708 25.0006 420.921 21.8122 422.538 18.877C424.105 15.9923 426.025 13.3606 428.299 11.0326C430.522 8.70465 433.099 6.68032 435.929 5.06085C438.759 3.39077 441.841 2.17616 445.176 1.26521C448.461 0.455476 452.048 0 455.788 0C458.617 0 461.295 0.253042 463.822 0.759127C466.349 1.26521 468.724 1.92312 470.896 2.83407C473.069 3.69442 475.141 4.8078 476.96 6.02241C478.83 7.28762 480.497 8.65404 481.963 10.1217L476.606 17.4599C476.303 17.9154 475.899 18.3203 475.394 18.6745C474.888 19.0288 474.231 19.2312 473.372 19.2312C472.513 19.2312 471.654 18.9276 470.795 18.3203C469.936 17.713 468.875 17.055 467.612 16.2959C466.349 15.5368 464.782 14.8789 462.912 14.2716C461.043 13.6643 458.617 13.3606 455.737 13.3606C452.503 13.3606 449.572 13.9679 446.894 15.1319C444.216 16.2959 441.892 18.0166 439.971 20.1928C438.051 22.4195 436.535 25.1524 435.474 28.3407C434.413 31.5797 433.908 35.2235 433.908 39.3228C433.908 43.4727 434.464 47.1671 435.626 50.406C436.788 53.645 438.354 56.3778 440.376 58.6046C442.397 60.8314 444.721 62.5014 447.399 63.6654C450.078 64.8294 452.907 65.3861 455.99 65.3861C457.809 65.3861 459.426 65.2849 460.891 65.1331C462.357 64.9306 463.721 64.6776 464.984 64.2221C466.248 63.8173 467.41 63.2606 468.521 62.552C469.633 61.8941 470.745 61.0338 471.907 60.0216C472.311 59.718 472.715 59.4143 473.12 59.2119C473.524 59.0095 473.979 58.9588 474.484 58.9588Z" fill="white"/>
<path d="M507.988 13.3098V33.1484H533.658V45.1932H507.988V65.4366H540.985V77.9369L491.97 77.9875V0.809559L540.985 0.75895V13.2592L507.988 13.3098Z" fill="white"/>
<path d="M385.198 1.82173L378.174 19.3829C378.629 21.559 379.134 23.5834 379.69 25.5571C380.246 27.5308 380.852 29.3527 381.458 31.0228L398.083 75.3052C398.437 76.1655 399.043 76.9753 399.953 77.7344C400.862 78.4429 401.974 78.8478 403.338 78.8478H416.224L385.198 1.82173Z" fill="url(#paint0_linear_577_5845)"/>
<path d="M385.198 1.82173L378.174 19.3829C378.477 20.7493 379.892 26.5693 380.296 27.7333L388.381 9.81786L385.198 1.82173Z" fill="url(#paint1_linear_577_5845)"/>
<path d="M370.748 1.82173L339.924 78.8478H352.759C354.123 78.8478 355.285 78.4935 356.144 77.8862C357.003 77.2283 357.66 76.368 358.064 75.3558L374.588 31.0228C375.245 29.3527 375.851 27.5308 376.458 25.5571C377.064 23.5834 377.67 21.5084 378.176 19.3829L385.149 1.82173H370.748Z" fill="white"/>
<defs>
<linearGradient id="paint0_linear_577_5845" x1="410.507" y1="97.0055" x2="380.331" y2="-10.6029" gradientUnits="userSpaceOnUse">
<stop stop-color="#347AF0"/>
<stop offset="1" stop-color="#29C4F8"/>
</linearGradient>
<linearGradient id="paint1_linear_577_5845" x1="385.462" y1="15.7163" x2="380.706" y2="14.0615" gradientUnits="userSpaceOnUse">
<stop stop-color="#1D1D1B" stop-opacity="0"/>
<stop offset="1" stop-color="#1D1D1B" stop-opacity="0.1"/>
</linearGradient>
</defs>
</svg>
