<svg width="31" height="31" viewBox="0 0 31 31" fill="none" xmlns="http://www.w3.org/2000/svg">
<path d="M11.6243 15.4997C11.6243 17.2831 10.1786 18.7288 8.39518 18.7288C6.61176 18.7288 5.16602 17.2831 5.16602 15.4997C5.16602 13.7163 6.61176 12.2705 8.39518 12.2705C10.1786 12.2705 11.6243 13.7163 11.6243 15.4997Z" stroke="white" stroke-width="2"/>
<path d="M18.0833 8.396L11.625 12.9168" stroke="white" stroke-width="2" stroke-linecap="round"/>
<path d="M18.0833 22.604L11.625 18.0832" stroke="white" stroke-width="2" stroke-linecap="round"/>
<path d="M24.6243 24.4997C24.6243 26.2831 23.1786 27.7288 21.3952 27.7288C19.6118 27.7288 18.166 26.2831 18.166 24.4997C18.166 22.7163 19.6118 21.2705 21.3952 21.2705C23.1786 21.2705 24.6243 22.7163 24.6243 24.4997Z" stroke="white" stroke-width="2"/>
<path d="M24.1083 8.7188C23.2166 10.2633 21.2416 10.7925 19.6972 9.90076C18.1527 9.00905 17.6235 7.03412 18.5152 5.48963C19.4069 3.94515 21.3818 3.41597 22.9263 4.30768" stroke="white" stroke-width="2" stroke-linecap="round"/>
</svg>
