<svg width="12" height="12" viewBox="0 0 12 12" fill="none" xmlns="http://www.w3.org/2000/svg">
<path d="M1.5 11H10.5" stroke="#CCF6E8" stroke-linecap="round" stroke-linejoin="round"/>
<path d="M1.5 8.5C1.5 8.9714 1.5 9.20711 1.64645 9.35355C1.79289 9.5 2.0286 9.5 2.5 9.5C2.9714 9.5 3.20711 9.5 3.35355 9.35355C3.5 9.20711 3.5 8.9714 3.5 8.5V5.5C3.5 5.0286 3.5 4.79289 3.35355 4.64645C3.20711 4.5 2.9714 4.5 2.5 4.5C2.0286 4.5 1.79289 4.5 1.64645 4.64645C1.5 4.79289 1.5 5.0286 1.5 5.5V6.5" stroke="#CCF6E8" stroke-linecap="round"/>
<path d="M5 3.5C5 3.0286 5 2.79289 5.14645 2.64645C5.29289 2.5 5.5286 2.5 6 2.5C6.4714 2.5 6.70711 2.5 6.85355 2.64645C7 2.79289 7 3.0286 7 3.5V8.5C7 8.9714 7 9.20711 6.85355 9.35355C6.70711 9.5 6.4714 9.5 6 9.5C5.5286 9.5 5.29289 9.5 5.14645 9.35355C5 9.20711 5 8.9714 5 8.5V3.5Z" stroke="#CCF6E8"/>
<path d="M10.5 5.5V8.5C10.5 8.9714 10.5 9.20711 10.3536 9.35355C10.2071 9.5 9.9714 9.5 9.5 9.5C9.0286 9.5 8.79289 9.5 8.64645 9.35355C8.5 9.20711 8.5 8.9714 8.5 8.5V2C8.5 1.5286 8.5 1.29289 8.64645 1.14645C8.79289 1 9.0286 1 9.5 1C9.9714 1 10.2071 1 10.3536 1.14645C10.5 1.29289 10.5 1.5286 10.5 2V3.5" stroke="#CCF6E8" stroke-linecap="round"/>
</svg>
