<svg width="31" height="31" viewBox="0 0 31 31" fill="none" xmlns="http://www.w3.org/2000/svg">
<path d="M2.58398 21.8292C2.58398 20.1379 2.58398 19.2923 2.96466 18.671C3.17767 18.3234 3.46993 18.0312 3.81753 17.8182C4.43874 17.4375 5.28438 17.4375 6.97565 17.4375H8.39648C10.8321 17.4375 12.0499 17.4375 12.8065 18.1941C13.5632 18.9508 13.5632 20.1686 13.5632 22.6042V24.025C13.5632 25.7163 13.5632 26.5619 13.1825 27.1831C12.9695 27.5307 12.6772 27.823 12.3296 28.036C11.7084 28.4167 10.8628 28.4167 9.17148 28.4167C6.63458 28.4167 5.36612 28.4167 4.4343 27.8456C3.9129 27.5261 3.47452 27.0878 3.155 26.5663" stroke="white" stroke-width="2" stroke-linecap="round"/>
<path d="M8 17.5V14" stroke="white" stroke-width="2" stroke-linejoin="bevel"/>
<path d="M17.5 8H14" stroke="white" stroke-width="2" stroke-linejoin="bevel"/>
<path d="M17.5 23H14" stroke="white" stroke-width="2" stroke-linejoin="bevel"/>
<path d="M23 17.5V14" stroke="white" stroke-width="2" stroke-linejoin="bevel"/>
<path d="M28.4167 9.17051C28.4167 10.8618 28.4167 11.7074 28.036 12.3286C27.823 12.6762 27.5307 12.9685 27.1831 13.1815C26.5619 13.5622 25.7163 13.5622 24.025 13.5622H22.6042C20.1686 13.5622 18.9508 13.5622 18.1941 12.8055C17.4375 12.0489 17.4375 10.8311 17.4375 8.39551V6.97468C17.4375 5.2834 17.4375 4.43777 17.8182 3.81655C18.0312 3.46895 18.3234 3.1767 18.671 2.96369C19.2923 2.58301 20.1379 2.58301 21.8292 2.58301C24.3661 2.58301 25.6345 2.58301 26.5663 3.15403C27.0878 3.47354 27.5261 3.91192 27.8456 4.43333" stroke="white" stroke-width="2" stroke-linecap="round"/>
<path d="M22.3125 8.07259C22.3125 7.77454 22.3134 7.59478 22.322 7.46749C22.4493 7.45894 22.629 7.45801 22.9271 7.45801C23.2251 7.45801 23.4049 7.45894 23.5322 7.46749C23.5407 7.59478 23.5417 7.77454 23.5417 8.07259C23.5417 8.37065 23.5407 8.5504 23.5322 8.67769C23.4049 8.68624 23.2251 8.68717 22.9271 8.68717C22.629 8.68717 22.4493 8.68624 22.322 8.67769C22.3134 8.5504 22.3125 8.37065 22.3125 8.07259Z" fill="#1C274C" stroke="white" stroke-width="2"/>
<path d="M16.4375 28.4167C16.4375 28.969 16.8852 29.4167 17.4375 29.4167C17.9898 29.4167 18.4375 28.969 18.4375 28.4167H16.4375ZM18.5856 17.8729L19.1412 18.7043L19.1412 18.7043L18.5856 17.8729ZM17.8729 18.5856L17.0414 18.03L17.0414 18.03L17.8729 18.5856ZM24.5417 16.4375H21.9583V18.4375H24.5417V16.4375ZM16.4375 21.9583V28.4167H18.4375V21.9583H16.4375ZM21.9583 16.4375C21.0721 16.4375 20.3321 16.4363 19.7348 16.4971C19.1208 16.5595 18.5475 16.6956 18.03 17.0414L19.1412 18.7043C19.2753 18.6147 19.4813 18.5332 19.9372 18.4868C20.4098 18.4387 21.0305 18.4375 21.9583 18.4375V16.4375ZM18.4375 21.9583C18.4375 21.0305 18.4387 20.4098 18.4868 19.9372C18.5332 19.4813 18.6147 19.2753 18.7043 19.1412L17.0414 18.03C16.6956 18.5475 16.5595 19.1208 16.4971 19.7348C16.4363 20.3321 16.4375 21.0721 16.4375 21.9583H18.4375ZM18.03 17.0414C17.6388 17.3028 17.3028 17.6388 17.0414 18.03L18.7043 19.1412C18.8199 18.9683 18.9683 18.8199 19.1412 18.7043L18.03 17.0414Z" fill="white"/>
<path d="M29.4173 17.4375C29.4173 16.8852 28.9696 16.4375 28.4173 16.4375C27.865 16.4375 27.4173 16.8852 27.4173 17.4375H29.4173ZM26.8226 28.22L27.2053 29.1439L27.2053 29.1439L26.8226 28.22ZM28.2207 26.8219L27.2968 26.4392L27.2968 26.4392L28.2207 26.8219ZM21.959 29.4167H24.5423V27.4167H21.959V29.4167ZM29.4173 21.9583V17.4375H27.4173V21.9583H29.4173ZM24.5423 29.4167C25.1305 29.4167 25.6217 29.4172 26.0239 29.3898C26.4351 29.3617 26.8257 29.3011 27.2053 29.1439L26.4399 27.2961C26.3447 27.3356 26.1971 27.3733 25.8877 27.3944C25.5694 27.4161 25.1578 27.4167 24.5423 27.4167V29.4167ZM27.4173 24.5417C27.4173 25.1572 27.4168 25.5688 27.3951 25.8871C27.374 26.1964 27.3362 26.344 27.2968 26.4392L29.1446 27.2046C29.3018 26.8251 29.3624 26.4344 29.3904 26.0232C29.4179 25.621 29.4173 25.1298 29.4173 24.5417H27.4173ZM27.2053 29.1439C28.0833 28.7802 28.7809 28.0826 29.1446 27.2046L27.2968 26.4392C27.1361 26.8272 26.8279 27.1354 26.4399 27.2961L27.2053 29.1439Z" fill="white"/>
<path d="M2.58398 9.17051C2.58398 6.6336 2.58398 5.36514 3.155 4.43333C3.47452 3.91192 3.9129 3.47354 4.4343 3.15403C5.36612 2.58301 6.63458 2.58301 9.17149 2.58301C10.8628 2.58301 11.7084 2.58301 12.3296 2.96369C12.6772 3.1767 12.9695 3.46895 13.1825 3.81655C13.5632 4.43777 13.5632 5.2834 13.5632 6.97467V8.39551C13.5632 10.8311 13.5632 12.0489 12.8065 12.8055C12.0499 13.5622 10.8321 13.5622 8.39648 13.5622H6.97565C5.28438 13.5622 4.43874 13.5622 3.81753 13.1815C3.46993 12.9685 3.17767 12.6762 2.96466 12.3286C2.58398 11.7074 2.58398 10.8618 2.58398 9.17051Z" stroke="white" stroke-width="2"/>
<path d="M7.45898 8.07259C7.45898 7.77454 7.45992 7.59478 7.46847 7.46749C7.59576 7.45894 7.77551 7.45801 8.07357 7.45801C8.37162 7.45801 8.55138 7.45894 8.67867 7.46749C8.68722 7.59478 8.68815 7.77454 8.68815 8.07259C8.68815 8.37065 8.68722 8.5504 8.67867 8.67769C8.55138 8.68624 8.37162 8.68717 8.07357 8.68717C7.77551 8.68717 7.59576 8.68624 7.46847 8.67769C7.45992 8.5504 7.45898 8.37065 7.45898 8.07259Z" fill="#1C274C" stroke="white" stroke-width="2"/>
<path d="M7.45898 22.9271C7.45898 22.629 7.45992 22.4493 7.46847 22.322C7.59576 22.3134 7.77551 22.3125 8.07357 22.3125C8.37162 22.3125 8.55138 22.3134 8.67867 22.322C8.68722 22.4493 8.68815 22.629 8.68815 22.9271C8.68815 23.2251 8.68722 23.4049 8.67867 23.5322C8.55138 23.5407 8.37162 23.5417 8.07357 23.5417C7.77551 23.5417 7.59576 23.5407 7.46847 23.5322C7.45992 23.4049 7.45898 23.2251 7.45898 22.9271Z" fill="#1C274C" stroke="white" stroke-width="2"/>
<path d="M21.666 22.9274C21.666 22.4531 21.6672 22.1726 21.6881 21.9675C21.6994 21.8559 21.7136 21.8065 21.7192 21.7907C21.7385 21.7633 21.7623 21.7395 21.7897 21.7202C21.8055 21.7146 21.855 21.7004 21.9665 21.6891C22.1716 21.6682 22.4521 21.667 22.9264 21.667C23.4008 21.667 23.6813 21.6682 23.8864 21.6891C23.9979 21.7004 24.0473 21.7146 24.0632 21.7202C24.0905 21.7395 24.1144 21.7633 24.1336 21.7907C24.1393 21.8065 24.1534 21.8559 24.1648 21.9675C24.1856 22.1726 24.1868 22.4531 24.1868 22.9274C24.1868 23.4017 24.1856 23.6822 24.1648 23.8874C24.1534 23.9989 24.1393 24.0483 24.1336 24.0641C24.1144 24.0915 24.0905 24.1153 24.0632 24.1346C24.0473 24.1403 23.9979 24.1544 23.8864 24.1657C23.6813 24.1866 23.4008 24.1878 22.9264 24.1878C22.4521 24.1878 22.1716 24.1866 21.9665 24.1657C21.855 24.1544 21.8055 24.1403 21.7897 24.1346C21.7623 24.1153 21.7385 24.0915 21.7192 24.0641C21.7136 24.0483 21.6994 23.9989 21.6881 23.8874C21.6672 23.6822 21.666 23.4017 21.666 22.9274ZM21.7218 21.7847C21.7218 21.7848 21.7213 21.7861 21.7201 21.7884C21.7211 21.7857 21.7217 21.7846 21.7218 21.7847ZM21.7837 21.7227C21.7836 21.7227 21.7847 21.7221 21.7874 21.7211C21.7851 21.7223 21.7838 21.7228 21.7837 21.7227ZM24.0692 21.7227C24.0691 21.7228 24.0677 21.7223 24.0654 21.7211C24.0681 21.7221 24.0693 21.7227 24.0692 21.7227ZM24.1311 21.7847C24.1311 21.7846 24.1317 21.7857 24.1328 21.7884C24.1316 21.7861 24.1311 21.7848 24.1311 21.7847ZM24.1311 24.0701C24.1311 24.07 24.1316 24.0687 24.1328 24.0664C24.1317 24.0691 24.1311 24.0702 24.1311 24.0701ZM24.0692 24.1321C24.0693 24.1321 24.0681 24.1327 24.0654 24.1338C24.0677 24.1326 24.0691 24.132 24.0692 24.1321ZM21.7837 24.1321C21.7838 24.132 21.7851 24.1326 21.7874 24.1338C21.7847 24.1327 21.7836 24.1321 21.7837 24.1321ZM21.7218 24.0701C21.7217 24.0702 21.7211 24.0691 21.7201 24.0664C21.7213 24.0687 21.7218 24.07 21.7218 24.0701Z" fill="#1C274C" stroke="white" stroke-width="2"/>
</svg>
