<svg width="319" height="192" viewBox="0 0 319 192" fill="none" xmlns="http://www.w3.org/2000/svg">
<path d="M222.185 144.709L194.721 191.054H280.911C282.694 191.054 284.385 190.212 285.437 188.774C327.326 131.524 327.868 62.6986 298.895 12.2956L266.451 67.1995C265.429 68.9289 263.568 69.9902 261.557 69.9902H232.117C230.075 69.9902 228.19 71.0843 227.179 72.8562L186.197 144.709H222.185Z" fill="#123F6D"/>
<path d="M35.8119 189.927C-8.89166 134.626 -8.65913 71.8773 19.5182 11.3498L77.2877 109.714L140.739 0H234.497L124.389 189.177C123.372 190.925 121.5 192 119.476 192H40.1792C38.4895 192 36.8733 191.24 35.8119 189.927Z" fill="#123F6D"/>
</svg>
