<svg width="52" height="51" viewBox="0 0 52 51" fill="none" xmlns="http://www.w3.org/2000/svg">
<path d="M33.4469 17.7631L25.3929 31.7517C24.7362 32.8921 24.4079 33.4623 23.8848 33.5052C23.3617 33.548 22.945 33.0387 22.1117 32.0203L19.4468 28.7632" stroke="white" stroke-width="2" stroke-linecap="round"/>
<path d="M46.8848 25.5C46.8848 35.5173 46.8848 40.526 43.7728 43.638C40.6608 46.75 35.6521 46.75 25.6348 46.75C15.6174 46.75 10.6087 46.75 7.49676 43.638C4.38477 40.526 4.38477 35.5173 4.38477 25.5C4.38477 15.4827 4.38477 10.474 7.49676 7.36199C10.6087 4.25 15.6174 4.25 25.6348 4.25C35.6521 4.25 40.6608 4.25 43.7728 7.36199C45.842 9.43119 46.5353 12.3389 46.7677 17" stroke="white" stroke-width="2" stroke-linecap="round"/>
</svg>
