<svg width="51" height="51" viewBox="0 0 51 51" fill="none" xmlns="http://www.w3.org/2000/svg">
<path d="M25.5 36.125V37.1875V38.25" stroke="white" stroke-width="2" stroke-linecap="round"/>
<path d="M25.5 12.75V13.8125V14.875" stroke="white" stroke-width="2" stroke-linecap="round"/>
<path d="M31.875 20.1875C31.875 17.2535 29.0208 14.875 25.5 14.875C21.9792 14.875 19.125 17.2535 19.125 20.1875C19.125 23.1215 21.9792 25.5 25.5 25.5C29.0208 25.5 31.875 27.8785 31.875 30.8125C31.875 33.7465 29.0208 36.125 25.5 36.125C21.9792 36.125 19.125 33.7465 19.125 30.8125" stroke="white" stroke-width="2" stroke-linecap="round"/>
<path d="M14.875 7.09287C18.0006 5.28481 21.6294 4.25 25.5 4.25C37.2361 4.25 46.75 13.7639 46.75 25.5C46.75 37.2361 37.2361 46.75 25.5 46.75C13.7639 46.75 4.25 37.2361 4.25 25.5C4.25 21.6294 5.28481 18.0006 7.09287 14.875" stroke="white" stroke-width="2" stroke-linecap="round"/>
</svg>
