<svg width="50" height="50" viewBox="0 0 50 50" fill="none" xmlns="http://www.w3.org/2000/svg">
<circle cx="25" cy="25" r="25" fill="#176BF8"/>
<path d="M25 11.25V38.75" stroke="white" stroke-width="2" stroke-linecap="round" stroke-linejoin="round"/>
<path d="M31.25 16.25H21.875C20.7147 16.25 19.6019 16.7109 18.7814 17.5314C17.9609 18.3519 17.5 19.4647 17.5 20.625C17.5 21.7853 17.9609 22.8981 18.7814 23.7186C19.6019 24.5391 20.7147 25 21.875 25H28.125C29.2853 25 30.3981 25.4609 31.2186 26.2814C32.0391 27.1019 32.5 28.2147 32.5 29.375C32.5 30.5353 32.0391 31.6481 31.2186 32.4686C30.3981 33.2891 29.2853 33.75 28.125 33.75H17.5" stroke="white" stroke-width="2" stroke-linecap="round" stroke-linejoin="round"/>
</svg>
