<svg width="12" height="12" viewBox="0 0 12 12" fill="none" xmlns="http://www.w3.org/2000/svg">
<g clip-path="url(#clip0_172_26121)">
<path d="M11 6C11 7.41421 11 8.12132 10.5607 8.56066C10.24 8.88131 9.77673 8.96794 9.00001 8.99134M3 8.99134C2.22328 8.96794 1.75999 8.88131 1.43934 8.56066C1 8.12132 1 7.41421 1 6C1 4.58579 1 3.87868 1.43934 3.43934C1.87868 3 2.58579 3 4 3H8C9.41421 3 10.1213 3 10.5607 3.43934C10.7106 3.58924 10.8093 3.77031 10.8744 4" stroke="#CCF6E8" stroke-linecap="round"/>
<path d="M4.5 5H3" stroke="#CCF6E8" stroke-linecap="round"/>
<path d="M9.5 7.5L2.5 7.5" stroke="#CCF6E8" stroke-linecap="round"/>
<path d="M8.99134 3C8.96794 2.22328 8.88131 1.75999 8.56066 1.43934C8.12132 1 7.41421 1 6 1C4.58579 1 3.87868 1 3.43934 1.43934C3.11869 1.75999 3.03206 2.22328 3.00866 3M9 7.5V8C9 9.41421 9 10.1213 8.56066 10.5607C8.24001 10.8813 7.77673 10.9679 7.00001 10.9913M3 7.5V8C3 9.41421 3 10.1213 3.43934 10.5607C3.75999 10.8813 4.22328 10.9679 5 10.9913" stroke="#CCF6E8" stroke-linecap="round"/>
<circle cx="8.5" cy="5" r="0.5" fill="#CCF6E8"/>
</g>
<defs>
<clipPath id="clip0_172_26121">
<rect width="12" height="12" fill="white"/>
</clipPath>
</defs>
</svg>
