<svg width="50" height="50" viewBox="0 0 50 50" fill="none" xmlns="http://www.w3.org/2000/svg">
<circle cx="25" cy="25" r="25" fill="#176BF8"/>
<path d="M27.6484 11.0273V16.8653C27.6484 19.0744 29.4393 20.8653 31.6484 20.8653H37.4864" stroke="white" stroke-width="2" stroke-linecap="round"/>
<path d="M24.8379 39.8382H16C15.4477 39.8382 15 39.3905 15 38.8382V11.6758C15 11.1235 15.4477 10.6758 16 10.6758H27.5859C27.8511 10.6758 28.1055 10.7811 28.293 10.9687L37.1938 19.8695C37.3813 20.057 37.4867 20.3113 37.4867 20.5766V24.3786" stroke="white" stroke-width="2" stroke-linecap="round"/>
<path d="M20.9727 20.1621H23.7835" stroke="white" stroke-width="2" stroke-linecap="round"/>
<path d="M20.9727 33.5137H23.7835" stroke="white" stroke-width="2" stroke-linecap="round"/>
<path d="M20.6221 26.8379H31.8654" stroke="white" stroke-width="2" stroke-linecap="round"/>
<path d="M30.8105 37.9812V39.1893C30.8105 39.7416 31.2583 40.1893 31.8105 40.1893H33.3026C34.4031 40.1893 35.455 39.7359 36.2107 38.9358L40.3325 34.5714C40.7041 34.178 40.6953 33.5604 40.3126 33.1777L37.842 30.7071C37.4515 30.3166 36.8183 30.3166 36.4278 30.7071L31.9821 35.1528C31.232 35.903 30.8105 36.9204 30.8105 37.9812Z" stroke="white" stroke-width="2" stroke-linecap="round"/>
</svg>
