<svg width="52" height="52" viewBox="0 0 52 52" fill="none" xmlns="http://www.w3.org/2000/svg">
<path d="M29 16.5C29 15.1193 27.6569 14 26 14C24.3431 14 23 15.1193 23 16.5C23 17.8807 24.3431 19 26 19C27.6569 19 29 20.1193 29 21.5C29 22.8807 27.6569 24 26 24C24.3431 24 23 22.8807 23 21.5" stroke="white" stroke-width="1.5" stroke-linecap="round"/>
<path d="M26 13V13.5V14" stroke="white" stroke-width="1.5" stroke-linecap="round"/>
<path d="M26 24V24.5V25" stroke="white" stroke-width="1.5" stroke-linecap="round"/>
<path d="M36.4988 4.98794C38.1054 5.29452 39.0578 5.63147 39.8808 6.64514C40.9115 7.91458 40.8571 9.28661 40.7481 12.0307C40.3565 21.8957 38.1456 34.3333 25.6658 34.3333C13.1859 34.3333 10.9751 21.8957 10.5834 12.0307C10.4745 9.28661 10.42 7.91458 11.4507 6.64514C12.4815 5.37569 13.7151 5.16755 16.1823 4.75127C18.6178 4.34036 21.8014 4 25.6658 4C27.222 4 28.6678 4.0552 29.9988 4.14797" stroke="white" stroke-width="2" stroke-linecap="round"/>
<path d="M38.666 47.332H12.666" stroke="white" stroke-width="2" stroke-linecap="round"/>
<path d="M10.4999 10.5L8.44452 11.1851C6.2994 11.9002 5.22684 12.2577 4.61337 13.1088C3.99991 13.96 3.99994 15.0906 4 17.3517L4.00001 17.5089C4.00006 19.3738 4.00008 20.3063 4.44899 21.0692C4.8979 21.8321 5.71303 22.285 7.34327 23.1907L13.7499 26.75" stroke="white" stroke-width="2"/>
<path d="M40.832 10.5L42.8874 11.1851C45.0325 11.9002 46.1051 12.2577 46.7185 13.1088C47.332 13.96 47.332 15.0906 47.3319 17.3517L47.3319 17.5089C47.3318 19.3738 47.3318 20.3063 46.8829 21.0692C46.434 21.8321 45.6189 22.285 43.9886 23.1907L37.582 26.75" stroke="white" stroke-width="2"/>
<path d="M33.2487 47.3327H18.082L18.817 43.6578C19.0196 42.645 19.9088 41.916 20.9416 41.916H30.3891C31.4219 41.916 32.3112 42.645 32.5137 43.6578L33.2487 47.3327Z" stroke="white" stroke-width="2" stroke-linecap="round" stroke-linejoin="round"/>
<path d="M25.666 34.332V40.832" stroke="white" stroke-width="2" stroke-linecap="round"/>
</svg>
