<svg width="52" height="51" viewBox="0 0 52 51" fill="none" xmlns="http://www.w3.org/2000/svg">
<path d="M47.084 25.5H4.58398" stroke="white" stroke-width="2" stroke-linecap="round"/>
<path d="M25.834 4.25V46.75" stroke="white" stroke-width="2" stroke-linecap="round"/>
<path d="M27.959 25.5C27.959 30.1944 31.7646 34 36.459 34" stroke="white" stroke-width="2" stroke-linecap="round"/>
<path d="M23.709 25.5C23.709 30.1944 19.9034 34 15.209 34" stroke="white" stroke-width="2" stroke-linecap="round"/>
<path d="M25.834 21.3241C25.834 18.1581 27.9887 15.3983 31.0602 14.6305C34.4681 13.7785 37.555 16.8654 36.703 20.2733C35.9352 23.3448 33.1754 25.4995 30.0094 25.4995H25.834V21.3241Z" stroke="white" stroke-width="2"/>
<path d="M26.2212 21.7118C26.2212 18.5458 24.0665 15.786 20.995 15.0182C17.5871 14.1662 14.5002 17.2531 15.3522 20.661C16.12 23.7325 18.8797 25.8872 22.0457 25.8872H26.2212V21.7118Z" stroke="white" stroke-width="2"/>
<path d="M47.084 25.5C47.084 35.5173 47.084 40.526 43.972 43.638C40.86 46.75 35.8513 46.75 25.834 46.75C15.8166 46.75 10.808 46.75 7.69597 43.638C4.58398 40.526 4.58398 35.5173 4.58398 25.5C4.58398 15.4827 4.58398 10.474 7.69597 7.36199C10.808 4.25 15.8166 4.25 25.834 4.25C35.8513 4.25 40.86 4.25 43.972 7.36199C46.0412 9.43119 46.7346 12.3389 46.9669 17" stroke="white" stroke-width="2" stroke-linecap="round"/>
</svg>
