<svg width="54" height="53" viewBox="0 0 54 53" fill="none" xmlns="http://www.w3.org/2000/svg">
<path d="M49.8793 15.0254L26.9113 26.5004M26.9113 26.5004L3.94336 15.0254M26.9113 26.5004V50.7254" stroke="white" stroke-width="2" stroke-linecap="round"/>
<path d="M52.3906 21.4C52.2961 18.0568 51.9779 15.9253 50.906 14.1063C49.3814 11.5193 46.6359 10.0797 41.1449 7.20037L36.0409 4.52402C31.5605 2.17467 29.3204 1 26.9106 1C24.5008 1 22.2606 2.17467 17.7803 4.52401L12.6763 7.20037C7.18525 10.0797 4.43973 11.5193 2.91518 14.1063C1.39062 16.6933 1.39062 19.9125 1.39062 26.3509V26.6491C1.39062 33.0875 1.39062 36.3067 2.91518 38.8937C4.43973 41.4807 7.18525 42.9203 12.6763 45.7996L17.7803 48.476C22.2606 50.8253 24.5008 52 26.9106 52C29.3204 52 31.5605 50.8253 36.0409 48.476L41.1449 45.7996C46.6359 42.9203 49.3814 41.4807 50.906 38.8937C51.9779 37.0747 52.2961 34.9432 52.3906 31.6" stroke="white" stroke-width="2" stroke-linecap="round"/>
<path d="M20.6064 14.7873C20.4871 14.7225 20.3544 14.6924 20.2081 14.697C20.0618 14.7016 19.9145 14.7413 19.7661 14.8162C19.6653 14.867 19.5935 14.9187 19.5508 14.9712C19.5072 15.0232 19.4901 15.0737 19.4993 15.1227C19.5096 15.1713 19.5441 15.2148 19.6029 15.2533C19.6501 15.2863 19.7038 15.3088 19.7641 15.3207C19.8254 15.3322 19.8908 15.3358 19.9604 15.3317C20.029 15.327 20.1012 15.317 20.177 15.3015C20.2518 15.2854 20.3278 15.2657 20.4049 15.2423L20.7262 15.1483C20.8804 15.1015 21.0331 15.0658 21.1842 15.0412C21.3353 15.0167 21.4824 15.006 21.6255 15.0092C21.7685 15.0124 21.9056 15.0321 22.0367 15.0682C22.1687 15.1039 22.2922 15.1588 22.4073 15.233C22.5739 15.3431 22.6736 15.4612 22.7063 15.5873C22.739 15.7123 22.7046 15.8396 22.6031 15.9694C22.5016 16.0981 22.3319 16.2224 22.0942 16.3423C21.8583 16.4613 21.6189 16.5428 21.3762 16.5868C21.1344 16.6303 20.898 16.6333 20.6672 16.5958C20.4365 16.5573 20.2202 16.4748 20.0184 16.3483L20.6162 16.0467C20.7147 16.1034 20.8195 16.1394 20.9304 16.1547C21.0415 16.1689 21.1544 16.1651 21.2693 16.1433C21.3843 16.1205 21.495 16.0821 21.6016 16.0284C21.7062 15.9756 21.7828 15.9204 21.8313 15.8629C21.8808 15.8049 21.9015 15.7485 21.8935 15.6936C21.8854 15.6388 21.8484 15.5898 21.7825 15.5467C21.721 15.5064 21.6497 15.4824 21.5688 15.4747C21.4889 15.4665 21.3971 15.4715 21.2935 15.4897C21.1909 15.5074 21.0742 15.5352 20.9436 15.5732L20.5506 15.6847C20.2481 15.7723 19.9657 15.813 19.7036 15.8068C19.4415 15.8006 19.2097 15.7311 19.0082 15.5983C18.8415 15.4903 18.7437 15.3717 18.7149 15.2427C18.687 15.1132 18.722 14.9834 18.8199 14.8535C18.9177 14.7235 19.0732 14.6048 19.2862 14.4973C19.5031 14.3879 19.7272 14.3152 19.9584 14.2791C20.1906 14.2425 20.4138 14.242 20.6281 14.2774C20.8424 14.3129 21.0325 14.3833 21.1985 14.4886L20.6064 14.7873ZM21.1722 14.1424L20.6948 13.8301L23.0945 12.6194L23.5719 12.9317L22.6774 13.383L24.9388 14.8622L24.3282 15.1703L22.0668 13.6911L21.1722 14.1424ZM26.3149 14.168L25.6529 14.502L23.9227 12.2015L24.7189 11.7999L28.4649 13.0833L27.8029 13.4172L24.9581 12.4044L24.9353 12.4159L26.3149 14.168ZM25.197 13.4847L26.7606 12.6958L27.2127 12.9914L25.649 13.7803L25.197 13.4847ZM28.7564 12.9362L26.0175 11.1447L27.1703 10.5631C27.391 10.4518 27.6163 10.381 27.8463 10.3507C28.0764 10.3193 28.2996 10.327 28.516 10.3738C28.7325 10.4195 28.9312 10.5016 29.1122 10.62C29.2941 10.739 29.4087 10.8624 29.4561 10.9904C29.5025 11.1177 29.4811 11.2442 29.3918 11.3699C29.3035 11.495 29.147 11.6142 28.9226 11.7275L28.1507 12.1169L27.6853 11.8125L28.3573 11.4734C28.4753 11.4139 28.5581 11.3546 28.6057 11.2954C28.6534 11.2362 28.666 11.1772 28.6434 11.1184C28.6218 11.059 28.5659 10.9999 28.4759 10.941C28.385 10.8815 28.2888 10.8412 28.1874 10.8201C28.0869 10.7984 27.9812 10.797 27.8701 10.8159C27.7592 10.8336 27.6442 10.8725 27.5253 10.9325L27.1087 11.1427L29.3741 12.6246L28.7564 12.9362ZM29.0879 11.3248L31.0605 11.7738L30.3785 12.1178L28.4217 11.661L29.0879 11.3248ZM28.96 10.2133L28.4826 9.90105L30.8823 8.69035L31.3597 9.00264L30.4652 9.45396L32.7266 10.9332L32.1159 11.2413L29.8545 9.76203L28.96 10.2133Z" fill="white"/>
<rect x="0.865241" y="0.0406267" width="19.3974" height="9.54937" rx="4.77468" transform="matrix(0.888678 -0.458531 0.841803 0.539785 13.1305 15.2289)" stroke="white"/>
</svg>
