<svg width="53" height="51" viewBox="0 0 53 51" fill="none" xmlns="http://www.w3.org/2000/svg">
<path d="M48.3841 25.5C48.3841 35.5173 48.3841 40.526 45.2111 43.638C42.0381 46.75 36.9312 46.75 26.7174 46.75C16.5037 46.75 11.3968 46.75 8.22379 43.638C5.05078 40.526 5.05078 35.5173 5.05078 25.5C5.05078 15.4827 5.05078 10.474 8.22379 7.36199C11.3968 4.25 16.5037 4.25 26.7174 4.25C36.9312 4.25 42.0381 4.25 45.2111 7.36199C47.3209 9.43119 48.0278 12.3389 48.2647 17" stroke="white" stroke-width="2" stroke-linecap="round"/>
<path d="M30.9715 14.3949C33.1229 12.3551 36.4366 12.1898 38.3728 14.0256C40.3091 15.8613 40.1347 19.003 37.9833 21.0428L34.8669 23.9974M24.3493 27.3214C22.413 25.4857 22.5874 22.3439 24.7388 20.3042L27.5039 17.6826" stroke="white" stroke-width="2" stroke-linecap="round"/>
<path d="M29.0857 23.6787C31.0219 25.5145 30.8475 28.6562 28.6962 30.6959L25.5798 33.6506L22.4635 36.6052C20.3121 38.645 16.9984 38.8103 15.0622 36.9746C13.1259 35.1388 13.3003 31.997 15.4517 29.9573L18.5681 27.0026" stroke="white" stroke-width="2" stroke-linecap="round"/>
</svg>
