<svg width="20" height="21" viewBox="0 0 20 21" fill="none" xmlns="http://www.w3.org/2000/svg">
<g clip-path="url(#clip0_172_27874)">
<path d="M10 20.59C15.5228 20.59 20 16.0411 20 10.4297C20 4.81841 15.5228 0.269531 10 0.269531C4.47715 0.269531 0 4.81841 0 10.4297C0 16.0411 4.47715 20.59 10 20.59Z" fill="#26A17B"/>
<path fill-rule="evenodd" clip-rule="evenodd" d="M11.2013 11.3076V11.3064C11.1325 11.3115 10.7781 11.333 9.9875 11.333C9.35625 11.333 8.91187 11.314 8.75562 11.3064V11.3083C6.32562 11.1997 4.51187 10.7698 4.51187 10.2554C4.51187 9.7417 6.32562 9.3118 8.75562 9.2013V10.8803C8.91437 10.8917 9.36937 10.919 9.99812 10.919C10.7525 10.919 11.1306 10.8873 11.2013 10.8809V9.20257C13.6263 9.31243 15.4356 9.74233 15.4356 10.2554C15.4356 10.7698 13.6263 11.1984 11.2013 11.3076ZM11.2013 9.02795V7.5255H14.585V5.23438H5.37188V7.5255H8.75562V9.02731C6.00562 9.15558 3.9375 9.70931 3.9375 10.3723C3.9375 11.0352 6.00562 11.5883 8.75562 11.7172V16.5319H11.2013V11.716C13.9469 11.5877 16.01 11.0346 16.01 10.3723C16.01 9.70995 13.9469 9.15685 11.2013 9.02795Z" fill="white"/>
</g>
<defs>
<clipPath id="clip0_172_27874">
<rect width="20" height="20.3204" fill="white" transform="translate(0 0.269531)"/>
</clipPath>
</defs>
</svg>
