<svg width="52" height="52" viewBox="0 0 52 52" fill="none" xmlns="http://www.w3.org/2000/svg">
<path d="M8.66602 39V13" stroke="white" stroke-width="2" stroke-linecap="round"/>
<path d="M43.334 26L43.334 39" stroke="white" stroke-width="2" stroke-linecap="round"/>
<path d="M25.9993 21.6668C35.5723 21.6668 43.3327 17.7866 43.3327 13.0002C43.3327 8.21369 35.5723 4.3335 25.9993 4.3335C16.4264 4.3335 8.66602 8.21369 8.66602 13.0002C8.66602 17.7866 16.4264 21.6668 25.9993 21.6668Z" stroke="white" stroke-width="2"/>
<path d="M43.3327 26C43.3327 30.7865 35.5723 34.6667 25.9993 34.6667C16.4264 34.6667 8.66602 30.7865 8.66602 26" stroke="white" stroke-width="2" stroke-linecap="round"/>
<path d="M43.3327 39C43.3327 43.7865 35.5723 47.6667 25.9993 47.6667C16.4264 47.6667 8.66602 43.7865 8.66602 39" stroke="white" stroke-width="2"/>
</svg>
