<svg width="35" height="35" viewBox="0 0 35 35" fill="none" xmlns="http://www.w3.org/2000/svg">
<path fill-rule="evenodd" clip-rule="evenodd" d="M7.37705 0C3.30282 0 0 3.30282 0 7.37705V27.6229C0 31.6972 3.30282 35 7.37705 35H27.6229C31.6972 35 35 31.6972 35 27.623V7.37705C35 3.30282 31.6972 0 27.623 0H7.37705ZM25.6182 13.9647C25.6182 13.7902 25.6147 13.6172 25.6069 13.4448C26.3917 12.8776 27.074 12.1698 27.6116 11.3638C26.8918 11.6838 26.1169 11.8992 25.3038 11.9967C26.1338 11.4987 26.7703 10.7118 27.0712 9.77374C26.2942 10.2336 25.4345 10.5684 24.5191 10.7493C23.7851 9.96729 22.7411 9.47918 21.5855 9.47918C19.3653 9.47918 17.5655 11.279 17.5655 13.4978C17.5655 13.8128 17.6008 14.1201 17.6693 14.4147C14.3288 14.2465 11.367 12.6473 9.38486 10.2152C9.03944 10.8093 8.84024 11.4987 8.84024 12.2355C8.84024 13.6299 9.55016 14.8611 10.6288 15.5809C9.96975 15.5604 9.35025 15.3789 8.80846 15.0787C8.80775 15.0949 8.80775 15.1112 8.80775 15.1295C8.80775 17.0763 10.1937 18.701 12.0324 19.0697C11.6947 19.1615 11.3394 19.211 10.9728 19.211C10.7143 19.211 10.4621 19.1856 10.217 19.1389C10.7291 20.7353 12.2125 21.8973 13.9721 21.9305C12.5961 23.0085 10.8633 23.6506 8.98011 23.6506C8.65588 23.6506 8.33589 23.6322 8.02084 23.5948C9.80021 24.7349 11.9123 25.4003 14.1826 25.4003C21.5749 25.4003 25.6182 19.276 25.6182 13.9647Z" fill="#7B7B7B"/>
</svg>
