<svg width="24" height="24" viewBox="0 0 24 24" fill="none" xmlns="http://www.w3.org/2000/svg">
<path fill-rule="evenodd" clip-rule="evenodd" d="M4 0C1.79086 0 0 1.79086 0 4V20C0 22.2091 1.79086 24 4 24H20C22.2091 24 24 22.2091 24 20V4C24 1.79086 22.2091 0 20 0H4ZM9.43637 5.12253H5L11.1079 13.1658L5.77338 19H6.96684L11.695 13.8942L15.5654 18.8775H20L14.1417 11.2392L19.8541 5.02042L18.6413 5L13.537 10.47L9.43637 5.12253ZM6.67506 5.91223H9.01805L18.3495 18.0673H16.0487L6.67506 5.91223Z" fill="#D9DDE7"/>
</svg>
